<svg width="22" height="22" viewBox="0 0 22 22" fill="none" xmlns="http://www.w3.org/2000/svg">
<path d="M11.0991 5.39173C8.04207 5.39173 5.5749 7.89642 5.5749 10.9999C5.5749 14.1034 8.04207 16.6081 11.0991 16.6081C14.1561 16.6081 16.6233 14.1034 16.6233 10.9999C16.6233 7.89642 14.1561 5.39173 11.0991 5.39173ZM11.0991 14.6449C9.12213 14.6449 7.50877 13.007 7.50877 10.9999C7.50877 8.9929 9.12213 7.35501 11.0991 7.35501C13.0761 7.35501 14.6894 8.9929 14.6894 10.9999C14.6894 13.007 13.0761 14.6449 11.0991 14.6449ZM16.8496 3.85501C16.1358 3.85501 15.5594 4.44017 15.5594 5.16478C15.5594 5.88939 16.1358 6.47454 16.8496 6.47454C17.5633 6.47454 18.1397 5.89212 18.1397 5.16478C18.1399 4.99272 18.1067 4.8223 18.0419 4.6633C17.9772 4.50429 17.8822 4.35982 17.7623 4.23815C17.6425 4.11649 17.5002 4.02002 17.3435 3.95427C17.1869 3.88853 17.0191 3.8548 16.8496 3.85501ZM21.8674 10.9999C21.8674 9.49056 21.8809 7.99485 21.7974 6.48821C21.7139 4.73821 21.3206 3.18509 20.0601 1.9054C18.7969 0.622981 17.2697 0.226497 15.5459 0.141731C14.0592 0.0569656 12.5859 0.0706375 11.1018 0.0706375C9.61503 0.0706375 8.14173 0.0569656 6.65765 0.141731C4.93386 0.226497 3.404 0.625715 2.14348 1.9054C0.880261 3.18782 0.489714 4.73821 0.406218 6.48821C0.322722 7.99759 0.336189 9.49329 0.336189 10.9999C0.336189 12.5066 0.322722 14.005 0.406218 15.5117C0.489714 17.2617 0.882954 18.8148 2.14348 20.0945C3.40669 21.3769 4.93386 21.7734 6.65765 21.8581C8.14442 21.9429 9.61772 21.9292 11.1018 21.9292C12.5886 21.9292 14.0619 21.9429 15.5459 21.8581C17.2697 21.7734 18.7996 21.3741 20.0601 20.0945C21.3233 18.812 21.7139 17.2617 21.7974 15.5117C21.8836 14.005 21.8674 12.5093 21.8674 10.9999ZM19.4972 17.4476C19.3006 17.9452 19.0636 18.3171 18.6838 18.6999C18.304 19.0855 17.9404 19.3261 17.4502 19.5257C16.0335 20.0972 12.6694 19.9687 11.0991 19.9687C9.52884 19.9687 6.16206 20.0972 4.74532 19.5284C4.25512 19.3288 3.88881 19.0882 3.51173 18.7027C3.13196 18.3171 2.89494 17.948 2.69832 17.4503C2.13809 16.0093 2.26468 12.5941 2.26468 10.9999C2.26468 9.40579 2.13809 5.98782 2.69832 4.54954C2.89494 4.05189 3.13196 3.68001 3.51173 3.2972C3.89151 2.91439 4.25512 2.67103 4.74532 2.47142C6.16206 1.90267 9.52884 2.03118 11.0991 2.03118C12.6694 2.03118 16.0362 1.90267 17.4529 2.47142C17.9431 2.67103 18.3094 2.91165 18.6865 3.2972C19.0663 3.68275 19.3033 4.05189 19.4999 4.54954C20.0601 5.98782 19.9335 9.40579 19.9335 10.9999C19.9335 12.5941 20.0601 16.0093 19.4972 17.4476Z" fill="#392444"/>
</svg>
