<svg width="20" height="20" viewBox="0 0 20 20" fill="none" xmlns="http://www.w3.org/2000/svg">
<path d="M0.110596 10.3998C0.110596 14.4982 2.64092 17.9974 6.20198 19.3742C6.11529 18.6246 6.0231 17.3886 6.22168 16.5214C6.39268 15.7758 7.32569 11.771 7.32569 11.771C7.32569 11.771 7.04437 11.199 7.04437 10.3518C7.04437 9.0238 7.80244 8.0318 8.74728 8.0318C9.55105 8.0318 9.93876 8.64381 9.93876 9.37741C9.93876 10.1974 9.42418 11.423 9.15862 12.5598C8.93719 13.511 9.62907 14.287 10.5526 14.287C12.2256 14.287 13.5124 12.4958 13.5124 9.9102C13.5124 7.6214 11.8923 6.0222 9.57942 6.0222C6.90174 6.0222 5.32964 8.0614 5.32964 10.1694C5.32964 10.991 5.64091 11.871 6.03019 12.3502C6.06338 12.3864 6.08683 12.4307 6.09828 12.4787C6.10974 12.5268 6.10881 12.577 6.09559 12.6246C6.02388 12.927 5.8647 13.5758 5.83397 13.7086C5.79221 13.883 5.69764 13.9206 5.51876 13.8358C4.34304 13.2806 3.60861 11.5358 3.60861 10.1342C3.60861 7.119 5.76541 4.351 9.82765 4.351C13.0932 4.351 15.6314 6.71341 15.6314 9.8702C15.6314 13.1638 13.5865 15.815 10.7465 15.815C9.79219 15.815 8.89621 15.311 8.58888 14.7166C8.58888 14.7166 8.11686 16.5422 8.0026 16.9886C7.78038 17.8558 7.16415 18.9534 6.78196 19.5766C7.66296 19.8518 8.59755 19.9998 9.56681 19.9998C14.789 19.9998 19.023 15.7014 19.023 10.3998C19.023 5.09821 14.789 0.799805 9.56681 0.799805C4.34462 0.799805 0.110596 5.09821 0.110596 10.3998Z" fill="#392444"/>
</svg>
