<svg width="22" height="22" viewBox="0 0 22 22" fill="none" xmlns="http://www.w3.org/2000/svg">
<path d="M8.59805 9.98998C8.80559 9.8374 8.90579 9.58553 8.90579 9.2392C8.91295 9.07451 8.87955 8.91225 8.80798 8.76451C8.74357 8.64584 8.64814 8.54654 8.53125 8.47631C8.41004 8.40169 8.27543 8.35229 8.13524 8.331C7.98256 8.30193 7.8275 8.2874 7.67482 8.28982H5.99774V10.2201H7.81318C8.1257 10.2225 8.3905 10.145 8.59805 9.98998ZM8.87955 11.7337C8.64576 11.5521 8.33325 11.4625 7.94439 11.4625H5.99297V13.739H7.90622C8.08514 13.739 8.24975 13.7221 8.40958 13.6882C8.56081 13.6582 8.70496 13.599 8.83422 13.5138C8.95589 13.4339 9.0537 13.3249 9.12765 13.1844C9.19922 13.044 9.235 12.8647 9.235 12.6492C9.235 12.2205 9.11572 11.9178 8.87955 11.7337ZM10.7856 0.149902C4.88366 0.149902 0.0981445 5.00818 0.0981445 10.9999C0.0981445 16.9916 4.88366 21.8499 10.7856 21.8499C16.6876 21.8499 21.4731 16.9916 21.4731 10.9999C21.4731 5.00818 16.6876 0.149902 10.7856 0.149902ZM12.8492 7.09826H16.1509V7.91443H12.8492V7.09826ZM10.7856 13.8287C10.6312 14.1263 10.4107 14.3833 10.1415 14.5794C9.86003 14.778 9.54752 14.9233 9.21592 15.0081C8.86899 15.1025 8.5111 15.1489 8.15194 15.1462H4.20138V6.88514H8.0422C8.43106 6.88514 8.78412 6.92146 9.10618 6.98928C9.42585 7.05709 9.69781 7.17334 9.92683 7.33076C10.1535 7.48818 10.3324 7.69889 10.4588 7.96045C10.5829 8.21959 10.6473 8.54412 10.6473 8.9292C10.6473 9.34576 10.5542 9.68967 10.3682 9.96818C10.1797 10.2467 9.90774 10.4719 9.53797 10.6487C10.0413 10.794 10.4111 11.0532 10.6544 11.4165C10.9025 11.7846 11.0242 12.2254 11.0242 12.7437C11.0242 13.1651 10.9455 13.5259 10.7856 13.8287ZM17.4367 12.5499H13.1808C13.1808 13.0197 13.3406 13.4702 13.5816 13.7124C13.8249 13.9522 14.1732 14.0733 14.6288 14.0733C14.9581 14.0733 15.2372 13.9885 15.4757 13.8214C15.7119 13.6543 15.8551 13.4775 15.9075 13.2934H17.3341C17.1051 14.0127 16.7568 14.5262 16.2845 14.8362C15.8169 15.1462 15.2443 15.3012 14.5788 15.3012C14.1136 15.3012 13.6961 15.2237 13.3215 15.0759C12.9613 14.933 12.6369 14.7151 12.3697 14.4341C12.1062 14.1456 11.9026 13.8063 11.7709 13.4363C11.6254 13.027 11.5538 12.5959 11.5586 12.1624C11.5586 11.7144 11.6325 11.2978 11.7757 10.9103C12.05 10.1571 12.6202 9.55404 13.3478 9.24162C13.7366 9.07693 14.1541 8.99459 14.5764 8.99943C15.0773 8.99943 15.5115 9.09631 15.8884 9.2949C16.2513 9.48454 16.5664 9.75633 16.8093 10.0893C17.0502 10.4211 17.2196 10.7989 17.327 11.2251C17.4295 11.6441 17.4653 12.0849 17.4367 12.5499ZM14.5263 10.2346C14.2686 10.2346 14.0515 10.2806 13.8845 10.3702C13.7176 10.4598 13.5792 10.5712 13.4742 10.6996C13.3743 10.8235 13.3004 10.9669 13.2571 11.121C13.219 11.2494 13.1927 11.3801 13.1832 11.5133H15.8193C15.7811 11.0944 15.638 10.7844 15.4471 10.5664C15.2467 10.3508 14.9247 10.2346 14.5263 10.2346Z" fill="#392444"/>
</svg>
