<svg width="21" height="21" viewBox="0 0 21 21" fill="none" xmlns="http://www.w3.org/2000/svg">
<path d="M18.6414 0H1.99452C0.938088 0 0.0737305 0.8775 0.0737305 1.95V18.85C0.0737305 19.9225 0.938088 20.8 1.99452 20.8H18.6414C19.6978 20.8 20.5622 19.9225 20.5622 18.85V1.95C20.5622 0.8775 19.6978 0 18.6414 0ZM14.7153 16.7492C14.1109 17.0378 13.5628 17.2406 13.0749 17.3589C12.5534 17.4778 12.0203 17.5362 11.4858 17.5331C10.8379 17.5331 10.4575 17.4512 9.9607 17.2848C9.46385 17.1184 9.04 16.8831 8.68785 16.5776C8.33571 16.2682 8.09497 15.9432 7.95923 15.5987C7.82349 15.2542 7.75563 14.7537 7.75563 14.0959V9.0623H5.83483V7.0304C6.39058 6.8471 7.03597 6.5832 7.42781 6.2426C7.82349 5.9007 8.14363 5.4912 8.38053 5.0115C8.62126 4.5318 8.78517 3.9234 8.87737 3.1837H10.8865V6.4987H14.1596V9.0623H10.8904V12.7426C10.8904 13.5759 10.8788 14.0543 10.9659 14.2909C11.053 14.5275 11.2707 14.7706 11.5063 14.9084C11.8187 15.0995 12.1786 15.1931 12.5794 15.1931C13.2952 15.1931 14.0085 14.9578 14.7166 14.4859V16.7492H14.7153Z" fill="#392444"/>
</svg>
