<svg width="255" height="181" viewBox="0 0 255 181" fill="none" xmlns="http://www.w3.org/2000/svg">
<path d="M2.5 6.64706C2.5 4.71407 4.067 3.14706 6 3.14706H183.474C185.407 3.14706 186.974 4.71407 186.974 6.64706V122.542C186.974 124.475 185.407 126.042 183.474 126.042H46.681C44.8024 126.042 42.9766 126.664 41.4892 127.812L8.1378 153.54L9.66481 155.519L8.1378 153.54C5.83682 155.315 2.5 153.675 2.5 150.769V147.398V128.542V6.64706Z" stroke="#4DBDCC" stroke-width="5"/>
<path d="M252.5 72.963C252.5 71.03 250.933 69.463 249 69.463H107.842C105.909 69.463 104.342 71.03 104.342 72.963V150.532C104.342 152.465 105.909 154.032 107.842 154.032H217.099C218.781 154.032 220.424 154.531 221.822 155.465L247.319 172.507C249.532 173.986 252.5 172.4 252.5 169.738V156.532V72.963Z" fill="#392444" stroke="#4DBDCC" stroke-width="5"/>
<path fill-rule="evenodd" clip-rule="evenodd" d="M157.055 113.3C154.76 115.846 150.838 116.049 148.292 113.754C145.746 111.458 145.543 107.537 147.839 104.991C150.134 102.445 154.056 102.242 156.602 104.537C159.148 106.833 159.351 110.754 157.055 113.3Z" fill="#4DBDCC"/>
<path fill-rule="evenodd" clip-rule="evenodd" d="M182.318 112.511C180.022 115.057 176.101 115.26 173.555 112.964C171.009 110.669 170.806 106.747 173.101 104.201C175.397 101.655 179.318 101.452 181.865 103.748C184.411 106.044 184.613 109.965 182.318 112.511Z" fill="#4DBDCC"/>
<path fill-rule="evenodd" clip-rule="evenodd" d="M206.791 113.301C204.496 115.847 200.574 116.05 198.028 113.754C195.482 111.458 195.28 107.537 197.575 104.991C199.871 102.445 203.792 102.242 206.338 104.538C208.884 106.833 209.087 110.755 206.791 113.301Z" fill="#4DBDCC"/>
<line x1="22.1056" y1="79.4629" x2="101.842" y2="79.4678" stroke="#4DBDCC" stroke-width="5"/>
<line x1="22.1047" y1="43.9787" x2="153.157" y2="43.9365" stroke="#4DBDCC" stroke-width="5"/>
</svg>
