<svg width="406" height="498" viewBox="0 0 406 498" fill="none" xmlns="http://www.w3.org/2000/svg">
<mask id="path-1-inside-1" fill="white">
<path d="M-90.609 227.611C-95.1861 280.387 -82.7868 333.246 -55.2184 378.482C-27.65 423.718 13.6461 458.966 62.6502 479.089C111.654 499.211 165.805 503.156 217.207 490.347C268.61 477.539 314.579 448.647 348.412 407.884C382.244 367.121 402.173 316.617 405.293 263.734C408.412 210.851 394.559 158.354 365.754 113.896C336.948 69.4376 294.695 35.3419 245.155 16.5789C195.614 -2.18408 141.376 -4.63337 90.3457 9.58806L107.641 71.6493C145.448 61.113 185.632 62.9276 222.336 76.8286C259.039 90.7297 290.343 115.99 311.685 148.929C333.026 181.867 343.289 220.76 340.978 259.94C338.667 299.12 323.902 336.537 298.836 366.737C273.77 396.938 239.714 418.343 201.63 427.833C163.547 437.322 123.428 434.4 87.1224 419.491C50.8164 404.583 20.2211 378.469 -0.203659 344.954C-20.6284 311.44 -29.8148 272.278 -26.4237 233.177L-90.609 227.611Z"/>
</mask>
<path d="M-90.609 227.611C-95.1861 280.387 -82.7868 333.246 -55.2184 378.482C-27.65 423.718 13.6461 458.966 62.6502 479.089C111.654 499.211 165.805 503.156 217.207 490.347C268.61 477.539 314.579 448.647 348.412 407.884C382.244 367.121 402.173 316.617 405.293 263.734C408.412 210.851 394.559 158.354 365.754 113.896C336.948 69.4376 294.695 35.3419 245.155 16.5789C195.614 -2.18408 141.376 -4.63337 90.3457 9.58806L107.641 71.6493C145.448 61.113 185.632 62.9276 222.336 76.8286C259.039 90.7297 290.343 115.99 311.685 148.929C333.026 181.867 343.289 220.76 340.978 259.94C338.667 299.12 323.902 336.537 298.836 366.737C273.77 396.938 239.714 418.343 201.63 427.833C163.547 437.322 123.428 434.4 87.1224 419.491C50.8164 404.583 20.2211 378.469 -0.203659 344.954C-20.6284 311.44 -29.8148 272.278 -26.4237 233.177L-90.609 227.611Z" stroke="url(#paint0_linear)" stroke-opacity="0.4" stroke-width="140" mask="url(#path-1-inside-1)"/>
<defs>
<linearGradient id="paint0_linear" x1="410.271" y1="423.148" x2="-33.1489" y2="21.4372" gradientUnits="userSpaceOnUse">
<stop stop-color="#4DBDCC"/>
<stop offset="1" stop-color="#4DBDCC" stop-opacity="0"/>
</linearGradient>
</defs>
</svg>
