<svg width="78" height="60" viewBox="0 0 78 60" fill="none" xmlns="http://www.w3.org/2000/svg">
<rect x="1" y="6.7973" width="76" height="51.7568" rx="3" stroke="#4DBDCC" stroke-width="2"/>
<circle cx="67.723" cy="13.4392" r="3.47973" stroke="#4DBDCC" stroke-width="2"/>
<circle cx="39.2635" cy="32.9392" r="22.4527" stroke="#4DBDCC" stroke-width="2"/>
<circle cx="38.9238" cy="32.5993" r="14.8108" transform="rotate(7.93671 38.9238 32.5993)" stroke="#4DBDCC" stroke-width="2"/>
<circle opacity="0.8" cx="44.1767" cy="34.993" r="16.0639" transform="rotate(7.93671 44.1767 34.993)" fill="#4DBDCC" fill-opacity="0.6"/>
<circle cx="68.5832" cy="13.7723" r="3.79775" transform="rotate(7.93671 68.5832 13.7723)" fill="#4DBDCC" fill-opacity="0.6"/>
<path d="M9.43243 1L13.7568 1L13.7568 5.32432L9.43243 5.32432L9.43243 1Z" stroke="#4DBDCC" stroke-width="2"/>
<rect x="1" y="6.7973" width="76" height="51.7568" rx="3" stroke="#4DBDCC" stroke-width="2"/>
<circle cx="67.723" cy="13.4392" r="3.47973" stroke="#4DBDCC" stroke-width="2"/>
<circle cx="39.2635" cy="32.9392" r="22.4527" stroke="#4DBDCC" stroke-width="2"/>
<circle cx="38.9238" cy="32.5993" r="14.8108" transform="rotate(7.93671 38.9238 32.5993)" stroke="#4DBDCC" stroke-width="2"/>
<path d="M9.43243 1L13.7568 1L13.7568 5.32432L9.43243 5.32432L9.43243 1Z" stroke="#4DBDCC" stroke-width="2"/>
</svg>
