<svg width="64" height="65" viewBox="0 0 64 65" fill="none" xmlns="http://www.w3.org/2000/svg">
<path d="M0.55 2C0.55 1.19919 1.19919 0.55 2 0.55H56.8538C57.6546 0.55 58.3038 1.19919 58.3038 2V42.1404C58.3038 42.9412 57.6546 43.5904 56.8538 43.5904H14.6045C13.9957 43.5904 13.4071 43.8081 12.9449 44.2043L2.94365 52.7768C2.00307 53.583 0.55 52.9147 0.55 51.6759V50.6482V44.1404V2Z" stroke="#4DBDCC" stroke-width="1.1"/>
<path d="M5.14648 10.2056C5.14648 9.101 6.04191 8.20557 7.14648 8.20557H62.0003C63.1049 8.20557 64.0003 9.101 64.0003 10.2056V50.3459C64.0003 51.4505 63.1049 52.3459 62.0003 52.3459H19.7509C19.2735 52.3459 18.8118 52.5167 18.4494 52.8274L8.44807 61.3999C7.15072 62.512 5.14648 61.5901 5.14648 59.8814V58.8538V52.3459V10.2056Z" fill="#4DBDCC" fill-opacity="0.6"/>
<path d="M25.2056 17.5474C25.4743 18.2341 25.1357 19.008 24.449 19.2766C23.7622 19.5453 22.9884 19.2067 22.7197 18.52C22.451 17.8333 22.7896 17.0594 23.4764 16.7907C24.1631 16.522 24.9369 16.8606 25.2056 17.5474" stroke="#338C98"/>
<path d="M30.6407 17.5476C30.9094 18.2343 30.5708 19.0081 29.884 19.2768C29.1973 19.5455 28.4235 19.2069 28.1548 18.5202C27.8861 17.8334 28.2247 17.0596 28.9114 16.7909C29.5981 16.5222 30.372 16.8608 30.6407 17.5476" stroke="#338C98"/>
<path d="M36.0748 17.5476C36.3434 18.2343 36.0048 19.0081 35.3181 19.2768C34.6314 19.5455 33.8575 19.2069 33.5888 18.5202C33.3202 17.8334 33.6588 17.0596 34.3455 16.7909C35.0322 16.5222 35.8061 16.8608 36.0748 17.5476" stroke="#338C98"/>
</svg>
