<svg width="19" height="18" viewBox="0 0 19 18" fill="none" xmlns="http://www.w3.org/2000/svg">
<path fill-rule="evenodd" clip-rule="evenodd" d="M2.82285 0.394775H16.8016C17.8134 0.394775 18.6308 1.24878 18.6308 2.30219V12.7384C18.6308 13.7918 17.8134 14.6458 16.8052 14.6458H6.81626L3.68707 17.9151C3.51783 18.0919 3.22975 17.9677 3.22975 17.7194V14.6458H2.82285C1.8146 14.6458 0.997192 13.7918 0.997192 12.7384V2.30219C0.997192 1.24878 1.8146 0.394775 2.82285 0.394775ZM5.69287 7.52397C5.69287 8.07324 6.11778 8.51717 6.64351 8.51717C7.16924 8.51717 7.59415 8.06947 7.59415 7.52397C7.59415 6.9747 7.16924 6.53076 6.64351 6.53076C6.11778 6.53076 5.69287 6.9747 5.69287 7.52397ZM9.81221 8.51717C9.28648 8.51717 8.86157 8.07324 8.86157 7.52397C8.86157 6.9747 9.28648 6.53076 9.81221 6.53076C10.3379 6.53076 10.7629 6.9747 10.7629 7.52397C10.7629 8.06947 10.3379 8.51717 9.81221 8.51717ZM12.0304 7.52397C12.0304 8.07324 12.4553 8.51717 12.981 8.51717C13.5068 8.51717 13.9317 8.06947 13.9317 7.52397C13.9317 6.9747 13.5068 6.53076 12.981 6.53076C12.4553 6.53076 12.0304 6.9747 12.0304 7.52397Z" fill="#BFC4CE"/>
</svg>
