<svg width="158" height="138" viewBox="0 0 158 138" fill="none" xmlns="http://www.w3.org/2000/svg">
<path d="M155.125 21.6473H136.75V13.7723C136.75 13.0761 136.473 12.4084 135.981 11.9161C135.489 11.4239 134.821 11.1473 134.125 11.1473H72.7473L68.2227 2.09925C68.0047 1.66326 67.6696 1.29659 67.2549 1.04032C66.8403 0.784043 66.3625 0.648294 65.875 0.648277H29.125C28.6376 0.648263 28.1598 0.783963 27.7451 1.04018C27.3305 1.29639 26.9953 1.66299 26.7773 2.09892L22.2528 11.1463H2.875C2.17881 11.1463 1.51113 11.4229 1.01884 11.9152C0.526562 12.4074 0.25 13.0751 0.25 13.7713V124.021C0.253995 127.501 1.63809 130.837 4.09864 133.298C6.55919 135.758 9.89526 137.142 13.375 137.146H144.625C148.105 137.142 151.441 135.758 153.901 133.298C156.362 130.837 157.746 127.501 157.75 124.021V24.2713C157.75 23.5753 157.473 22.9079 156.981 22.4158C156.489 21.9237 155.821 21.6473 155.125 21.6473ZM5.5 124.022V16.3973H23.875C24.3625 16.3973 24.8403 16.2615 25.2549 16.0053C25.6696 15.749 26.0047 15.3823 26.2227 14.9463L30.7472 5.89828H64.2527L68.7773 14.9463C68.9953 15.3823 69.3304 15.749 69.7451 16.0053C70.1597 16.2615 70.6375 16.3973 71.125 16.3973H131.5V21.6473H68.5C67.9491 21.6473 67.4122 21.8207 66.9652 22.1428C66.5183 22.4649 66.1841 22.9195 66.0099 23.4421L64.8581 26.8973H13.375C12.6788 26.8973 12.0111 27.1739 11.5188 27.6661C11.0266 28.1584 10.75 28.8261 10.75 29.5223V131.445C9.21587 130.901 7.88774 129.895 6.94779 128.566C6.00784 127.237 5.50212 125.65 5.5 124.022ZM21.25 40.0223V124.022C21.2479 125.65 20.7422 127.237 19.8022 128.566C18.8623 129.895 17.5341 130.901 16 131.445V32.1473H63.1082L61.358 37.3973H23.875C23.5302 37.3973 23.1888 37.4652 22.8703 37.5972C22.5518 37.7291 22.2624 37.9225 22.0186 38.1664C21.7749 38.4102 21.5815 38.6996 21.4496 39.0182C21.3177 39.3368 21.2499 39.6782 21.25 40.0229V40.0223ZM152.5 124.022C152.498 126.11 151.667 128.112 150.191 129.588C148.715 131.065 146.713 131.895 144.625 131.897H23.8688C25.5793 129.629 26.5031 126.864 26.5 124.022V42.6473H63.25C63.8009 42.6473 64.3378 42.4739 64.7848 42.1518C65.2317 41.8297 65.5659 41.3751 65.7401 40.8524L70.392 26.8966H152.5V124.022Z" fill="#4DBDCC"/>
</svg>
