<svg width="168" height="168" viewBox="0 0 168 168" fill="none" xmlns="http://www.w3.org/2000/svg">
<path d="M84.0002 0C74.7217 0 67.2002 7.5215 67.2002 16.8C67.2002 26.0785 74.7217 33.6 84.0002 33.6C93.2748 33.5909 100.791 26.0747 100.8 16.8C100.8 7.5215 93.2787 0 84.0002 0ZM84.0002 28C77.8146 28 72.8002 22.9856 72.8002 16.8C72.8002 10.6145 77.8146 5.6 84.0002 5.6C90.1857 5.6 95.2002 10.6145 95.2002 16.8C95.2002 22.9856 90.1857 28 84.0002 28Z" fill="#4DBDCC"/>
<path d="M95.1998 36.4H94.539L93.9482 36.694C87.6829 39.8135 80.3168 39.8135 74.0514 36.694L73.4606 36.4H72.7998C65.0718 36.4091 58.8089 42.672 58.7998 50.4V67.2C58.7998 71.8392 62.5606 75.6 67.1998 75.6H100.8C105.439 75.6 109.2 71.8392 109.2 67.2V50.4C109.191 42.672 102.928 36.4091 95.1998 36.4ZM103.6 67.2C103.6 68.7463 102.346 70 100.8 70H67.1998C65.6535 70 64.3998 68.7463 64.3998 67.2V50.4C64.4005 45.9928 67.8071 42.3353 72.2034 42.0224C79.6847 45.4944 88.3153 45.4944 95.7962 42.0224C100.192 42.3353 103.599 45.9928 103.6 50.4V67.2Z" fill="#4DBDCC"/>
<path d="M142.8 92.4C133.521 92.4 126 99.9215 126 109.2C126 118.479 133.521 126 142.8 126C152.078 126 159.6 118.479 159.6 109.2C159.591 99.9254 152.075 92.4091 142.8 92.4ZM142.8 120.4C136.614 120.4 131.6 115.386 131.6 109.2C131.6 103.014 136.614 98 142.8 98C148.986 98 154 103.014 154 109.2C154 115.386 148.986 120.4 142.8 120.4Z" fill="#4DBDCC"/>
<path d="M154 128.8H153.339L152.748 129.08C146.483 132.199 139.117 132.199 132.851 129.08L132.26 128.8H131.6C123.872 128.809 117.609 135.072 117.6 142.8V159.6C117.6 164.239 121.36 168 126 168H159.6C164.239 168 168 164.239 168 159.6V142.8C167.991 135.072 161.728 128.809 154 128.8ZM162.4 159.6C162.4 161.146 161.146 162.4 159.6 162.4H126C124.453 162.4 123.2 161.146 123.2 159.6V142.8C123.2 138.393 126.607 134.735 131.003 134.422C138.484 137.894 147.115 137.894 154.596 134.422C158.992 134.735 162.399 138.393 162.4 142.8V159.6Z" fill="#4DBDCC"/>
<path d="M25.2004 92.4C15.9219 92.4 8.40039 99.9215 8.40039 109.2C8.40039 118.479 15.9219 126 25.2004 126C34.4789 126 42.0004 118.479 42.0004 109.2C41.9913 99.9254 34.475 92.4091 25.2004 92.4ZM25.2004 120.4C19.0148 120.4 14.0004 115.386 14.0004 109.2C14.0004 103.014 19.0148 98 25.2004 98C31.3859 98 36.4004 103.014 36.4004 109.2C36.4004 115.386 31.3859 120.4 25.2004 120.4Z" fill="#4DBDCC"/>
<path d="M36.4 128.8H35.7392L35.1484 129.08C28.8831 132.199 21.517 132.199 15.2516 129.08L14.6608 128.8H14C6.272 128.809 0.0091 135.072 0 142.8V159.6C0 164.239 3.76075 168 8.4 168H42C46.6393 168 50.4 164.239 50.4 159.6V142.8C50.3909 135.072 44.128 128.809 36.4 128.8ZM44.8 159.6C44.8 161.146 43.5463 162.4 42 162.4H8.4C6.8537 162.4 5.6 161.146 5.6 159.6V142.8C5.6007 138.393 9.00725 134.735 13.4036 134.422C20.8849 137.894 29.5152 137.894 36.9964 134.422C41.3928 134.735 44.7993 138.393 44.8 142.8V159.6Z" fill="#4DBDCC"/>
<path d="M111.78 142.197C111.779 142.193 111.777 142.19 111.776 142.187C111.17 140.764 109.525 140.102 108.103 140.708C95.4589 146.007 81.4169 146.974 68.1662 143.458L70.787 142.688C72.2717 142.253 73.1229 140.698 72.6882 139.213C72.2535 137.728 70.6981 136.877 69.2134 137.312L58.0134 140.596C57.9714 140.596 57.9406 140.644 57.9014 140.658C57.6421 140.755 57.3985 140.89 57.179 141.058C57.0817 141.111 56.9883 141.17 56.899 141.235C56.6036 141.498 56.3695 141.823 56.213 142.187C56.0611 142.553 55.9887 142.947 56.0002 143.343C56.0685 143.722 56.1619 144.096 56.2802 144.463C56.297 144.502 56.2802 144.547 56.311 144.586L61.911 155.302C62.6271 156.674 64.3194 157.205 65.691 156.489C67.0627 155.773 67.5943 154.081 66.8782 152.709L64.599 148.352C79.6539 152.878 95.8173 151.998 110.292 145.866C111.716 145.264 112.382 143.621 111.78 142.197Z" fill="#4DBDCC"/>
<path d="M158.779 73.6204C157.685 72.5273 155.913 72.5273 154.82 73.6204L150.858 77.5824C148.539 53.0579 132.969 31.7758 110.297 22.1424C108.874 21.5362 107.229 22.198 106.623 23.6208C106.017 25.0435 106.679 26.6882 108.102 27.2944C128.44 35.9383 142.578 54.8285 145.137 76.7788L141.979 73.6204C140.867 72.5459 139.094 72.5767 138.02 73.689C136.972 74.774 136.972 76.4942 138.02 77.5796L146.42 85.9796C147.512 87.0744 149.285 87.0768 150.38 85.9845C150.381 85.9827 150.383 85.981 150.384 85.9796L158.784 77.5796C159.876 76.4848 159.874 74.7124 158.779 73.6204Z" fill="#4DBDCC"/>
<path d="M61.5186 24.2452C61.5095 24.0818 61.4854 23.9197 61.4458 23.7608C61.4458 23.7356 61.415 23.7188 61.4038 23.6908C61.3926 23.6628 61.4038 23.6432 61.4038 23.6208C61.3275 23.4847 61.2393 23.3552 61.1406 23.2344C61.05 23.0703 60.9429 22.9156 60.8214 22.7724C60.6559 22.6258 60.4725 22.5008 60.2754 22.4C60.1771 22.3164 60.0721 22.2404 59.9618 22.1732L48.7618 17.0576C47.3314 16.4703 45.6955 17.1539 45.1082 18.5843C44.5527 19.9371 45.132 21.4897 46.4378 22.148L52.2366 24.7996C30.4061 36.483 16.7841 59.2396 16.7998 84C16.7998 85.5463 18.0535 86.8 19.5998 86.8C21.1461 86.8 22.3998 85.5463 22.3998 84C22.3858 62.1975 33.9152 42.0168 52.7042 30.9568L50.6798 35.1876C50.0124 36.5796 50.5972 38.2491 51.9874 38.92C52.3651 39.1045 52.7795 39.2003 53.1998 39.2C54.275 39.1986 55.2543 38.5815 55.7198 37.6124L61.3198 25.928C61.3198 25.9 61.3198 25.8692 61.3422 25.8412C61.415 25.6498 61.4658 25.4506 61.4934 25.2476C61.5414 25.0968 61.5771 24.9424 61.5998 24.7856C61.5904 24.6033 61.5634 24.4223 61.5186 24.2452Z" fill="#4DBDCC"/>
</svg>
