<svg width="68" height="78" viewBox="0 0 68 78" fill="none" xmlns="http://www.w3.org/2000/svg">
<ellipse rx="27.6489" ry="27.7497" transform="matrix(0.990349 0.138593 -0.137567 0.990492 36.8005 37.8633)" fill="#4DBDCC" fill-opacity="0.6"/>
<path d="M30.9903 17.47C13.0383 17.47 0.432302 29.614 0.432302 47.236C0.432302 64.792 12.8403 77.134 30.7263 77.134C34.9503 77.134 40.2963 76.144 44.1903 74.098L43.3323 71.656C39.5703 73.702 34.6863 74.56 30.7263 74.56C14.3583 74.56 3.1383 63.34 3.1383 47.236C3.1383 31.066 14.4903 19.978 30.9903 19.978C47.3583 19.978 58.7763 30.67 58.7763 46.708C58.7763 56.212 55.8723 61.558 51.5823 61.558C49.1403 61.558 47.2263 60.106 47.2263 56.344V30.274H44.1903V38.26C41.5503 33.112 36.4683 30.01 30.1983 30.01C20.8263 30.01 13.7643 37.138 13.7643 47.104C13.7643 57.136 20.8263 64.264 30.1983 64.264C36.5343 64.264 41.6163 61.096 44.2563 55.816V57.202C44.2563 61.624 47.0283 64.264 51.1863 64.264C57.3243 64.264 61.3503 57.862 61.3503 46.642C61.3503 29.284 48.7443 17.47 30.9903 17.47ZM30.5283 61.492C22.6743 61.492 16.8663 55.618 16.8663 47.104C16.8663 38.59 22.6743 32.782 30.5283 32.782C38.3823 32.782 44.2563 38.524 44.2563 47.104C44.2563 55.684 38.3823 61.492 30.5283 61.492Z" fill="#4DBDCC"/>
</svg>
