<svg width="71" height="63" viewBox="0 0 71 63" fill="none" xmlns="http://www.w3.org/2000/svg">
<path d="M25.298 32.6354C23.4634 34.5582 21.7198 36.5461 20.0672 38.5991L16.5339 42.9916L23.5064 49.095L28.5244 46.0021C30.8683 44.5575 33.1394 43.0313 35.3375 41.4233C33.1201 38.4318 28.7155 34.5761 25.298 32.6354Z" fill="#4DBDCC" fill-opacity="0.6"/>
<path d="M64.6609 2.19481L38.9404 20.7793C37.2608 21.993 35.6276 23.2515 34.0407 24.5551C37.6694 26.7008 42.117 30.5939 44.5685 33.7705C46.0555 32.381 47.4933 30.9513 48.882 29.4814L70.1133 6.96745C70.7266 6.31713 71.041 5.49007 70.9952 4.64773C70.9493 3.80539 70.5464 3.00826 69.8652 2.41196C69.184 1.81566 68.2733 1.46301 67.311 1.42285C66.3487 1.3827 65.4038 1.65793 64.6609 2.19481ZM43.9091 21.4074L43.1409 21.9625C43.059 22.0229 42.9642 22.0686 42.862 22.0968C42.7598 22.125 42.6522 22.1352 42.5455 22.1268C42.4387 22.1184 42.335 22.0915 42.2402 22.0477C42.1454 22.004 42.0614 21.9442 41.9932 21.8718C41.925 21.7995 41.8739 21.716 41.8427 21.6262C41.8116 21.5365 41.8012 21.4422 41.8119 21.3489C41.8227 21.2555 41.8546 21.165 41.9056 21.0825C41.9566 21 42.0258 20.9272 42.1092 20.8683L42.8774 20.3132C42.9593 20.2527 43.0541 20.207 43.1563 20.1788C43.2585 20.1506 43.3661 20.1404 43.4728 20.1489C43.5796 20.1573 43.6833 20.1842 43.7781 20.2279C43.8729 20.2717 43.9569 20.3315 44.0251 20.4038C44.0933 20.4762 44.1444 20.5597 44.1756 20.6494C44.2067 20.7392 44.2171 20.8335 44.2064 20.9268C44.1956 21.0201 44.1637 21.1107 44.1127 21.1932C44.0617 21.2757 43.9925 21.3485 43.9091 21.4074ZM58.2378 11.0541L46.2342 19.7274C46.1523 19.7879 46.0575 19.8336 45.9553 19.8618C45.8531 19.89 45.7455 19.9002 45.6388 19.8917C45.5321 19.8833 45.4283 19.8564 45.3335 19.8127C45.2387 19.7689 45.1548 19.7091 45.0865 19.6368C45.0183 19.5644 44.9672 19.4809 44.9361 19.3912C44.9049 19.3014 44.8945 19.2071 44.9053 19.1138C44.9161 19.0204 44.9479 18.9299 44.9989 18.8474C45.0499 18.7649 45.1192 18.6921 45.2025 18.6332L57.2061 9.9599C57.288 9.8994 57.3828 9.85372 57.485 9.82551C57.5872 9.7973 57.6948 9.78711 57.8015 9.79554C57.9083 9.80397 58.012 9.83084 58.1068 9.87461C58.2016 9.91838 58.2856 9.97816 58.3538 10.0505C58.422 10.1229 58.4732 10.2063 58.5043 10.2961C58.5354 10.3859 58.5458 10.4802 58.5351 10.5735C58.5243 10.6668 58.4924 10.7574 58.4414 10.8399C58.3904 10.9224 58.3212 10.9952 58.2378 11.0541Z" fill="#4DBDCC" fill-opacity="0.6"/>
<path d="M32.7842 25.5408C30.5063 27.4331 28.3314 29.4105 26.2597 31.473C29.8174 33.4969 34.1781 37.2414 36.5349 40.2976C38.9346 38.5209 41.237 36.653 43.4423 34.694C41.0699 31.5589 36.4345 27.5781 32.7842 25.5408Z" fill="#4DBDCC" fill-opacity="0.6"/>
<path d="M12.8395 42.2961C12.9875 42.3482 13.1172 42.423 13.223 42.5129L21.2331 49.3241C21.4458 49.505 21.5457 49.7313 21.5457 49.9464C21.5457 50.1614 21.4458 50.3877 21.2331 50.5686C21.0179 50.7516 20.7109 50.8651 20.3772 50.8651C20.0435 50.8651 19.7365 50.7516 19.5213 50.5686L11.5112 43.7575L11.1947 44.1298L11.5112 43.7575C11.4056 43.6677 11.3269 43.5654 11.2752 43.4592C11.2236 43.3533 11.1987 43.2435 11.1987 43.1352C11.1987 43.0269 11.2236 42.9171 11.2752 42.8113C11.3269 42.705 11.4056 42.6028 11.5112 42.5129C11.617 42.423 11.7468 42.3482 11.8947 42.2961C12.0427 42.244 12.2034 42.2165 12.3671 42.2165C12.5309 42.2165 12.6916 42.244 12.8395 42.2961Z" stroke="#4DBDCC"/>
<path d="M26.9656 44.1575L26.9656 44.1575L22.2616 47.0569L15.9277 41.5124L19.1602 37.4938C19.1602 37.4937 19.1603 37.4937 19.1603 37.4936C20.7224 35.5531 22.3662 33.671 24.092 31.8472C27.247 33.7198 31.1545 37.1303 33.333 39.9013C31.2744 41.3913 29.152 42.8101 26.9656 44.1575Z" stroke="#4DBDCC"/>
<path d="M7.87055 55.1186C7.94552 55.0504 8.00494 54.969 8.04531 54.8791C8.08568 54.7893 8.10616 54.6928 8.10556 54.5955C8.10536 54.5017 8.08395 54.409 8.0427 54.3234C8.00145 54.2377 7.94129 54.161 7.86607 54.0982C7.78801 54.0342 7.69673 53.9856 7.59776 53.9553C7.49879 53.925 7.39419 53.9137 7.29033 53.9219H7.2893C7.18676 53.9133 7.0834 53.9242 6.98552 53.9537C6.88764 53.9833 6.79727 54.031 6.71993 54.0939C6.64551 54.1567 6.58611 54.2333 6.54558 54.3186C6.50504 54.404 6.48426 54.4962 6.48458 54.5895C6.48463 54.688 6.50586 54.7855 6.54704 54.8763C6.58822 54.9671 6.64851 55.0495 6.72441 55.1185C6.87644 55.2591 7.08254 55.3381 7.29744 55.3381C7.51235 55.3382 7.71848 55.2592 7.87055 55.1186Z" fill="#4DBDCC"/>
<path d="M1.06273 51.4958L0 61.141L4.84579 56.8696C4.69652 56.5929 4.61859 56.2905 4.6176 55.984C4.61632 55.7127 4.67737 55.444 4.79706 55.1941C4.91675 54.9442 5.09259 54.7182 5.31399 54.5299C5.53637 54.3403 5.79952 54.192 6.08792 54.0935C6.37632 53.995 6.68416 53.9485 6.99328 53.9565H6.99798C7.30811 53.9486 7.61692 53.9955 7.90619 54.0944C8.19546 54.1934 8.45934 54.3424 8.68228 54.5327C8.90364 54.7215 9.07967 54.9477 9.19989 55.1977C9.32011 55.4478 9.38207 55.7166 9.38208 55.9882C9.38238 56.2633 9.32105 56.5357 9.20162 56.7898C9.08218 57.0439 8.90699 57.2746 8.68611 57.4688C8.46523 57.663 8.20302 57.8168 7.91454 57.9214C7.62605 58.026 7.31699 58.0792 7.0051 58.0781C6.65453 58.0769 6.30853 58.0077 5.9916 57.8756L1.14501 62.1491L12.0677 61.2124L16.21 51.9872L11.3218 47.6761L1.06273 51.4958Z" fill="#4DBDCC" fill-opacity="0.6"/>
<path d="M2.93758 60.1024L6.42642 57.0261C6.71723 57.1132 7.02159 57.1581 7.32799 57.1592C7.32801 57.1592 7.32802 57.1592 7.32803 57.1592L2.93758 60.1024ZM2.93758 60.1024L12.0567 59.3204L15.9276 50.6996L11.5403 46.8303L1.85065 50.438L0.963152 58.4927L4.56776 55.3154C4.48591 55.0744 4.4431 54.8222 4.44227 54.5667M2.93758 60.1024L4.44227 54.5667M4.44227 54.5667C4.44075 54.2185 4.51929 53.8756 4.67077 53.5592C4.82217 53.2431 5.04234 52.9619 5.31433 52.7304L4.44227 54.5667ZM10.2067 54.5687C10.2067 54.2206 10.1271 53.8781 9.97518 53.5622C9.82333 53.2463 9.60322 52.9653 9.33157 52.7335L10.2067 54.5687ZM6.25104 52.2014C5.9057 52.3193 5.58683 52.4982 5.3145 52.7303L9.33143 52.7334C9.05854 52.5005 8.73892 52.3209 8.39269 52.2024C8.04972 52.0851 7.68545 52.0294 7.3204 52.0375C6.95639 52.0293 6.59312 52.0846 6.25104 52.2014Z" stroke="#4DBDCC"/>
<path d="M63.6573 1.18112L63.6573 1.18114L37.9367 19.7656C37.9367 19.7656 37.9367 19.7656 37.9367 19.7656C36.4575 20.8345 35.0146 21.9383 33.6078 23.0771C36.9977 25.2049 40.9255 28.652 43.3263 31.6144C44.6654 30.3492 45.9638 29.0508 47.2217 27.7194L63.6573 1.18112ZM63.6573 1.18112C64.3044 0.713515 65.1374 0.467747 65.9937 0.503474C66.8499 0.539202 67.6496 0.853005 68.2394 1.36924C68.8275 1.88404 69.1614 2.55867 69.1994 3.25597C69.2374 3.95267 68.9787 4.64812 68.453 5.20544L68.8168 5.54851L68.453 5.20547L47.222 27.7191L63.6573 1.18112ZM40.333 20.7959L40.6886 20.4606L40.333 20.7959C40.4472 20.9171 40.5842 21.0136 40.7341 21.0827L40.9395 20.6379L40.7341 21.0827C40.8839 21.1519 41.0455 21.1934 41.2096 21.2063C41.3738 21.2193 41.5397 21.2037 41.6986 21.1599C41.8565 21.1163 42.0065 21.045 42.1392 20.9474C42.14 20.9468 42.1407 20.9463 42.1415 20.9457L42.9011 20.3968C42.9019 20.3962 42.9027 20.3957 42.9035 20.3951C43.0378 20.2998 43.1538 20.179 43.2415 20.0373L42.8162 19.7742L43.2415 20.0373C43.3298 19.8944 43.3871 19.734 43.4066 19.5653C43.4261 19.3965 43.4069 19.2266 43.3515 19.0667L42.8791 19.2305L43.3515 19.0667C43.2962 18.9071 43.2068 18.7632 43.0924 18.6419C42.9782 18.5207 42.8411 18.4242 42.6913 18.355C42.5414 18.2858 42.3798 18.2444 42.2157 18.2315C42.0516 18.2185 41.8856 18.2341 41.7268 18.2779C41.5688 18.3215 41.4188 18.3929 41.2861 18.4904C41.2853 18.491 41.2846 18.4915 41.2838 18.4921L40.5242 19.041C40.5234 19.0415 40.5227 19.0421 40.5219 19.0426C40.3875 19.138 40.2716 19.2587 40.1839 19.4005L40.6091 19.6635L40.1839 19.4005C40.0955 19.5434 40.0383 19.7038 40.0188 19.8725C39.9993 20.0413 40.0184 20.2111 40.0738 20.371L40.5463 20.2073L40.0738 20.371C40.1292 20.5307 40.2186 20.6746 40.333 20.7959ZM44.303 18.9712L44.3423 18.4728L44.303 18.9712C44.4671 18.9842 44.633 18.9686 44.7919 18.9248C44.9497 18.8812 45.0997 18.8099 45.2324 18.7124C45.2332 18.7118 45.234 18.7112 45.2348 18.7106L57.2298 10.0435C57.2306 10.0429 57.2314 10.0424 57.2323 10.0418C57.3665 9.94644 57.4825 9.8257 57.5702 9.68394C57.6585 9.54107 57.7158 9.38064 57.7353 9.21197C57.7548 9.04316 57.7356 8.87333 57.6802 8.71342L57.2078 8.87717L57.6802 8.71341C57.6249 8.55378 57.5355 8.40987 57.4211 8.28856C57.3069 8.16741 57.1698 8.07091 57.02 8.00171C56.8701 7.93253 56.7086 7.89111 56.5444 7.87815C56.3803 7.86519 56.2143 7.88075 56.0555 7.92459C55.8976 7.96818 55.7475 8.03951 55.6148 8.13707C55.6141 8.13763 55.6133 8.1382 55.6125 8.13876L43.6175 16.8059C43.6167 16.8065 43.6158 16.8071 43.615 16.8077C43.4808 16.903 43.3649 17.0237 43.2772 17.1654C43.1888 17.3083 43.1316 17.4687 43.1121 17.6374L43.6088 17.6948L43.1121 17.6374C43.0926 17.8062 43.1117 17.9761 43.1672 18.136C43.2225 18.2956 43.3119 18.4395 43.4263 18.5608C43.5405 18.682 43.6775 18.7785 43.8274 18.8477C43.9773 18.9169 44.1388 18.9583 44.303 18.9712Z" stroke="#4DBDCC"/>
<path d="M35.3295 38.1877C33.007 35.3178 29.1226 31.9732 25.7774 29.9521C27.6181 28.1443 29.5396 26.4028 31.5418 24.7278C34.9444 26.6967 39.13 30.2808 41.4631 33.2112C39.4958 34.9421 37.4513 36.6009 35.3295 38.1877Z" stroke="#4DBDCC"/>
<path d="M12.8395 42.2961C12.9875 42.3482 13.1172 42.423 13.223 42.5129L21.2331 49.3241C21.4458 49.505 21.5457 49.7313 21.5457 49.9464C21.5457 50.1614 21.4458 50.3877 21.2331 50.5686C21.0179 50.7516 20.7109 50.8651 20.3772 50.8651C20.0435 50.8651 19.7365 50.7516 19.5213 50.5686L11.5112 43.7575L11.1947 44.1298L11.5112 43.7575C11.4056 43.6677 11.3269 43.5654 11.2752 43.4592C11.2236 43.3533 11.1987 43.2435 11.1987 43.1352C11.1987 43.0269 11.2236 42.9171 11.2752 42.8113C11.3269 42.705 11.4056 42.6028 11.5112 42.5129C11.617 42.423 11.7468 42.3482 11.8947 42.2961C12.0427 42.244 12.2034 42.2165 12.3671 42.2165C12.5309 42.2165 12.6916 42.244 12.8395 42.2961Z" stroke="#4DBDCC"/>
<path d="M26.9656 44.1575L26.9656 44.1575L22.2616 47.0569L15.9277 41.5124L19.1602 37.4938C19.1602 37.4937 19.1603 37.4937 19.1603 37.4936C20.7224 35.5531 22.3662 33.671 24.092 31.8472C27.247 33.7198 31.1545 37.1303 33.333 39.9013C31.2744 41.3913 29.152 42.8101 26.9656 44.1575Z" stroke="#4DBDCC"/>
<path d="M2.93758 60.1024L6.42642 57.0261C6.71723 57.1132 7.02159 57.1581 7.32799 57.1592C7.32801 57.1592 7.32802 57.1592 7.32803 57.1592L2.93758 60.1024ZM2.93758 60.1024L12.0567 59.3204L15.9276 50.6996L11.5403 46.8303L1.85065 50.438L0.963152 58.4927L4.56776 55.3154C4.48591 55.0744 4.4431 54.8222 4.44227 54.5667M2.93758 60.1024L4.44227 54.5667M4.44227 54.5667C4.44075 54.2185 4.51929 53.8756 4.67077 53.5592C4.82217 53.2431 5.04234 52.9619 5.31433 52.7304L4.44227 54.5667ZM10.2067 54.5687C10.2067 54.2206 10.1271 53.8781 9.97518 53.5622C9.82333 53.2463 9.60322 52.9653 9.33157 52.7335L10.2067 54.5687ZM6.25104 52.2014C5.9057 52.3193 5.58683 52.4982 5.3145 52.7303L9.33143 52.7334C9.05854 52.5005 8.73892 52.3209 8.39269 52.2024C8.04972 52.0851 7.68545 52.0294 7.3204 52.0375C6.95639 52.0293 6.59312 52.0846 6.25104 52.2014Z" stroke="#4DBDCC"/>
<path d="M63.6573 1.18112L63.6573 1.18114L37.9367 19.7656C37.9367 19.7656 37.9367 19.7656 37.9367 19.7656C36.4575 20.8345 35.0146 21.9383 33.6078 23.0771C36.9977 25.2049 40.9255 28.652 43.3263 31.6144C44.6654 30.3492 45.9638 29.0508 47.2217 27.7194L63.6573 1.18112ZM63.6573 1.18112C64.3044 0.713515 65.1374 0.467747 65.9937 0.503474C66.8499 0.539202 67.6496 0.853005 68.2394 1.36924C68.8275 1.88404 69.1614 2.55867 69.1994 3.25597C69.2374 3.95267 68.9787 4.64812 68.453 5.20544L68.8168 5.54851L68.453 5.20547L47.222 27.7191L63.6573 1.18112ZM40.333 20.7959L40.6886 20.4606L40.333 20.7959C40.4472 20.9171 40.5842 21.0136 40.7341 21.0827L40.9395 20.6379L40.7341 21.0827C40.8839 21.1519 41.0455 21.1934 41.2096 21.2063C41.3738 21.2193 41.5397 21.2037 41.6986 21.1599C41.8565 21.1163 42.0065 21.045 42.1392 20.9474C42.14 20.9468 42.1407 20.9463 42.1415 20.9457L42.9011 20.3968C42.9019 20.3962 42.9027 20.3957 42.9035 20.3951C43.0378 20.2998 43.1538 20.179 43.2415 20.0373L42.8162 19.7742L43.2415 20.0373C43.3298 19.8944 43.3871 19.734 43.4066 19.5653C43.4261 19.3965 43.4069 19.2266 43.3515 19.0667L42.8791 19.2305L43.3515 19.0667C43.2962 18.9071 43.2068 18.7632 43.0924 18.6419C42.9782 18.5207 42.8411 18.4242 42.6913 18.355C42.5414 18.2858 42.3798 18.2444 42.2157 18.2315C42.0516 18.2185 41.8856 18.2341 41.7268 18.2779C41.5688 18.3215 41.4188 18.3929 41.2861 18.4904C41.2853 18.491 41.2846 18.4915 41.2838 18.4921L40.5242 19.041C40.5234 19.0415 40.5227 19.0421 40.5219 19.0426C40.3875 19.138 40.2716 19.2587 40.1839 19.4005L40.6091 19.6635L40.1839 19.4005C40.0955 19.5434 40.0383 19.7038 40.0188 19.8725C39.9993 20.0413 40.0184 20.2111 40.0738 20.371L40.5463 20.2073L40.0738 20.371C40.1292 20.5307 40.2186 20.6746 40.333 20.7959ZM44.303 18.9712L44.3423 18.4728L44.303 18.9712C44.4671 18.9842 44.633 18.9686 44.7919 18.9248C44.9497 18.8812 45.0997 18.8099 45.2324 18.7124C45.2332 18.7118 45.234 18.7112 45.2348 18.7106L57.2298 10.0435C57.2306 10.0429 57.2314 10.0424 57.2323 10.0418C57.3665 9.94644 57.4825 9.8257 57.5702 9.68394C57.6585 9.54107 57.7158 9.38064 57.7353 9.21197C57.7548 9.04316 57.7356 8.87333 57.6802 8.71342L57.2078 8.87717L57.6802 8.71341C57.6249 8.55378 57.5355 8.40987 57.4211 8.28856C57.3069 8.16741 57.1698 8.07091 57.02 8.00171C56.8701 7.93253 56.7086 7.89111 56.5444 7.87815C56.3803 7.86519 56.2143 7.88075 56.0555 7.92459C55.8976 7.96818 55.7475 8.03951 55.6148 8.13707C55.6141 8.13763 55.6133 8.1382 55.6125 8.13876L43.6175 16.8059C43.6167 16.8065 43.6158 16.8071 43.615 16.8077C43.4808 16.903 43.3649 17.0237 43.2772 17.1654C43.1888 17.3083 43.1316 17.4687 43.1121 17.6374L43.6088 17.6948L43.1121 17.6374C43.0926 17.8062 43.1117 17.9761 43.1672 18.136C43.2225 18.2956 43.3119 18.4395 43.4263 18.5608C43.5405 18.682 43.6775 18.7785 43.8274 18.8477C43.9773 18.9169 44.1388 18.9583 44.303 18.9712Z" stroke="#4DBDCC"/>
<path d="M35.3295 38.1877C33.007 35.3178 29.1226 31.9732 25.7774 29.9521C27.6181 28.1443 29.5396 26.4028 31.5418 24.7278C34.9444 26.6967 39.13 30.2808 41.4631 33.2112C39.4958 34.9421 37.4513 36.6009 35.3295 38.1877Z" stroke="#4DBDCC"/>
<path d="M12.8395 42.2961C12.9875 42.3482 13.1172 42.423 13.223 42.5129L21.2331 49.3241C21.4458 49.505 21.5457 49.7313 21.5457 49.9464C21.5457 50.1614 21.4458 50.3877 21.2331 50.5686C21.0179 50.7516 20.7109 50.8651 20.3772 50.8651C20.0435 50.8651 19.7365 50.7516 19.5213 50.5686L11.5112 43.7575L11.1947 44.1298L11.5112 43.7575C11.4056 43.6677 11.3269 43.5654 11.2752 43.4592C11.2236 43.3533 11.1987 43.2435 11.1987 43.1352C11.1987 43.0269 11.2236 42.9171 11.2752 42.8113C11.3269 42.705 11.4056 42.6028 11.5112 42.5129C11.617 42.423 11.7468 42.3482 11.8947 42.2961C12.0427 42.244 12.2034 42.2165 12.3671 42.2165C12.5309 42.2165 12.6916 42.244 12.8395 42.2961Z" stroke="#4DBDCC"/>
<path d="M26.9656 44.1575L26.9656 44.1575L22.2616 47.0569L15.9277 41.5124L19.1602 37.4938C19.1602 37.4937 19.1603 37.4937 19.1603 37.4936C20.7224 35.5531 22.3662 33.671 24.092 31.8472C27.247 33.7198 31.1545 37.1303 33.333 39.9013C31.2744 41.3913 29.152 42.8101 26.9656 44.1575Z" stroke="#4DBDCC"/>
<path d="M2.93758 60.1024L6.42642 57.0261C6.71723 57.1132 7.02159 57.1581 7.32799 57.1592C7.32801 57.1592 7.32802 57.1592 7.32803 57.1592L2.93758 60.1024ZM2.93758 60.1024L12.0567 59.3204L15.9276 50.6996L11.5403 46.8303L1.85065 50.438L0.963152 58.4927L4.56776 55.3154C4.48591 55.0744 4.4431 54.8222 4.44227 54.5667M2.93758 60.1024L4.44227 54.5667M4.44227 54.5667C4.44075 54.2185 4.51929 53.8756 4.67077 53.5592C4.82217 53.2431 5.04234 52.9619 5.31433 52.7304L4.44227 54.5667ZM10.2067 54.5687C10.2067 54.2206 10.1271 53.8781 9.97518 53.5622C9.82333 53.2463 9.60322 52.9653 9.33157 52.7335L10.2067 54.5687ZM6.25104 52.2014C5.9057 52.3193 5.58683 52.4982 5.3145 52.7303L9.33143 52.7334C9.05854 52.5005 8.73892 52.3209 8.39269 52.2024C8.04972 52.0851 7.68545 52.0294 7.3204 52.0375C6.95639 52.0293 6.59312 52.0846 6.25104 52.2014Z" stroke="#4DBDCC"/>
<path d="M63.6573 1.18112L63.6573 1.18114L37.9367 19.7656C37.9367 19.7656 37.9367 19.7656 37.9367 19.7656C36.4575 20.8345 35.0146 21.9383 33.6078 23.0771C36.9977 25.2049 40.9255 28.652 43.3263 31.6144C44.6654 30.3492 45.9638 29.0508 47.2217 27.7194L63.6573 1.18112ZM63.6573 1.18112C64.3044 0.713515 65.1374 0.467747 65.9937 0.503474C66.8499 0.539202 67.6496 0.853005 68.2394 1.36924C68.8275 1.88404 69.1614 2.55867 69.1994 3.25597C69.2374 3.95267 68.9787 4.64812 68.453 5.20544L68.8168 5.54851L68.453 5.20547L47.222 27.7191L63.6573 1.18112ZM40.333 20.7959L40.6886 20.4606L40.333 20.7959C40.4472 20.9171 40.5842 21.0136 40.7341 21.0827L40.9395 20.6379L40.7341 21.0827C40.8839 21.1519 41.0455 21.1934 41.2096 21.2063C41.3738 21.2193 41.5397 21.2037 41.6986 21.1599C41.8565 21.1163 42.0065 21.045 42.1392 20.9474C42.14 20.9468 42.1407 20.9463 42.1415 20.9457L42.9011 20.3968C42.9019 20.3962 42.9027 20.3957 42.9035 20.3951C43.0378 20.2998 43.1538 20.179 43.2415 20.0373L42.8162 19.7742L43.2415 20.0373C43.3298 19.8944 43.3871 19.734 43.4066 19.5653C43.4261 19.3965 43.4069 19.2266 43.3515 19.0667L42.8791 19.2305L43.3515 19.0667C43.2962 18.9071 43.2068 18.7632 43.0924 18.6419C42.9782 18.5207 42.8411 18.4242 42.6913 18.355C42.5414 18.2858 42.3798 18.2444 42.2157 18.2315C42.0516 18.2185 41.8856 18.2341 41.7268 18.2779C41.5688 18.3215 41.4188 18.3929 41.2861 18.4904C41.2853 18.491 41.2846 18.4915 41.2838 18.4921L40.5242 19.041C40.5234 19.0415 40.5227 19.0421 40.5219 19.0426C40.3875 19.138 40.2716 19.2587 40.1839 19.4005L40.6091 19.6635L40.1839 19.4005C40.0955 19.5434 40.0383 19.7038 40.0188 19.8725C39.9993 20.0413 40.0184 20.2111 40.0738 20.371L40.5463 20.2073L40.0738 20.371C40.1292 20.5307 40.2186 20.6746 40.333 20.7959ZM44.303 18.9712L44.3423 18.4728L44.303 18.9712C44.4671 18.9842 44.633 18.9686 44.7919 18.9248C44.9497 18.8812 45.0997 18.8099 45.2324 18.7124C45.2332 18.7118 45.234 18.7112 45.2348 18.7106L57.2298 10.0435C57.2306 10.0429 57.2314 10.0424 57.2323 10.0418C57.3665 9.94644 57.4825 9.8257 57.5702 9.68394C57.6585 9.54107 57.7158 9.38064 57.7353 9.21197C57.7548 9.04316 57.7356 8.87333 57.6802 8.71342L57.2078 8.87717L57.6802 8.71341C57.6249 8.55378 57.5355 8.40987 57.4211 8.28856C57.3069 8.16741 57.1698 8.07091 57.02 8.00171C56.8701 7.93253 56.7086 7.89111 56.5444 7.87815C56.3803 7.86519 56.2143 7.88075 56.0555 7.92459C55.8976 7.96818 55.7475 8.03951 55.6148 8.13707C55.6141 8.13763 55.6133 8.1382 55.6125 8.13876L43.6175 16.8059C43.6167 16.8065 43.6158 16.8071 43.615 16.8077C43.4808 16.903 43.3649 17.0237 43.2772 17.1654C43.1888 17.3083 43.1316 17.4687 43.1121 17.6374L43.6088 17.6948L43.1121 17.6374C43.0926 17.8062 43.1117 17.9761 43.1672 18.136C43.2225 18.2956 43.3119 18.4395 43.4263 18.5608C43.5405 18.682 43.6775 18.7785 43.8274 18.8477C43.9773 18.9169 44.1388 18.9583 44.303 18.9712Z" stroke="#4DBDCC"/>
<path d="M35.3295 38.1877C33.007 35.3178 29.1226 31.9732 25.7774 29.9521C27.6181 28.1443 29.5396 26.4028 31.5418 24.7278C34.9444 26.6967 39.13 30.2808 41.4631 33.2112C39.4958 34.9421 37.4513 36.6009 35.3295 38.1877Z" stroke="#4DBDCC"/>
</svg>
