<svg width="71" height="71" viewBox="0 0 71 71" fill="none" xmlns="http://www.w3.org/2000/svg">
<path d="M52.9324 48.7727L48.5824 53.1227C48.4702 53.2349 48.2935 53.2349 48.1814 53.1227L43.8314 48.7727C43.7192 48.6606 43.7192 48.4838 43.8314 48.3717L48.1814 44.0217C48.2935 43.9095 48.4702 43.9095 48.5824 44.0217L52.9324 48.3717C53.0445 48.4838 53.0445 48.6639 52.9324 48.7727Z" stroke="#4DBDCC" stroke-width="3" stroke-miterlimit="10" stroke-linecap="round"/>
<path d="M15.6175 45.7889L11.3797 50.0267C11.2369 50.1694 11.0092 50.1694 10.8665 50.0267L6.62866 45.7889C6.48592 45.6461 6.48592 45.4184 6.62866 45.2757L10.8665 41.0378C11.0092 40.8951 11.2369 40.8951 11.3797 41.0378L15.6175 45.2757C15.7603 45.4184 15.7603 45.6461 15.6175 45.7889Z" stroke="#4DBDCC" stroke-width="3" stroke-miterlimit="10" stroke-linecap="round"/>
<path d="M49.833 11.5768L45.5985 15.8113C45.4558 15.954 45.2247 15.954 45.082 15.8113L40.8475 11.5768C40.7048 11.4341 40.7048 11.203 40.8475 11.0603L45.082 6.8258C45.2247 6.68307 45.4558 6.68307 45.5985 6.8258L49.833 11.0603C49.9757 11.1996 49.9757 11.4307 49.833 11.5768Z" stroke="#4DBDCC" stroke-width="3" stroke-miterlimit="10" stroke-linecap="round"/>
<path d="M28.4194 68.7249L46.0981 51.0463" stroke="#4DBDCC" stroke-width="3" stroke-miterlimit="10" stroke-linecap="round"/>
<path d="M51.2332 45.9112L69.2891 27.8553" stroke="#4DBDCC" stroke-width="3" stroke-miterlimit="10" stroke-linecap="round"/>
<path d="M45.0922 51.3148C35.4678 57.7242 22.3464 56.6843 13.8571 48.1916" stroke="#4DBDCC" stroke-width="3" stroke-miterlimit="10" stroke-linecap="round"/>
<path d="M48.1372 13.9081C56.6265 22.3974 57.6698 35.5188 51.2604 45.1432" stroke="#4DBDCC" stroke-width="3" stroke-miterlimit="10" stroke-linecap="round"/>
<path d="M44.3921 41.0514L38.0506 21.2521C37.8977 20.7764 37.5714 20.3753 37.133 20.1306L25.1434 13.4561L13.4527 25.1467L20.1307 37.1364C20.3753 37.5748 20.773 37.9011 21.2521 38.054L41.8501 44.6538L43.2502 43.2536L28.9938 28.9972" stroke="#4DBDCC" stroke-width="3" stroke-miterlimit="10" stroke-linecap="round"/>
<path d="M17.2046 2L26.4687 11.2641C26.7066 11.502 26.7066 11.8895 26.4687 12.1273L12.1239 26.4721C11.8861 26.71 11.4986 26.71 11.2607 26.4721L2 17.208" stroke="#4DBDCC" stroke-width="3" stroke-miterlimit="10" stroke-linecap="round"/>
</svg>
