<svg width="18" height="13" viewBox="0 0 18 13" fill="none" xmlns="http://www.w3.org/2000/svg">
<path fill-rule="evenodd" clip-rule="evenodd" d="M8.90283 0.699219C5.5327 0.699219 2.4765 2.81482 0.221329 6.25113C0.0373075 6.53265 0.0373075 6.92596 0.221329 7.20749C2.4765 10.6479 5.5327 12.7635 8.90283 12.7635C12.273 12.7635 15.3292 10.6479 17.5843 7.21162C17.7684 6.9301 17.7684 6.53679 17.5843 6.25526C15.3292 2.81482 12.273 0.699219 8.90283 0.699219ZM9.14456 10.9795C6.90743 11.141 5.06 9.02541 5.20072 6.45439C5.31618 4.33464 6.81362 2.6165 8.66105 2.48401C10.8982 2.32254 12.7456 4.43816 12.6049 7.00917C12.4858 9.12477 10.9884 10.8429 9.14456 10.9795ZM6.91106 6.58261C6.83167 7.96541 7.82756 9.10394 9.03272 9.017C10.025 8.94662 10.8332 8.02338 10.8982 6.87656C10.9776 5.49376 9.98169 4.35522 8.77653 4.44217C7.78065 4.51669 6.9724 5.43994 6.91106 6.58261Z" fill="#BFC4CE"/>
</svg>
