<svg width="245" height="266" viewBox="0 0 245 266" fill="none" xmlns="http://www.w3.org/2000/svg">
<path fill-rule="evenodd" clip-rule="evenodd" d="M8.35227 4.17614C8.35227 6.48345 6.48345 8.35227 4.17614 8.35227C1.86882 8.35227 0 6.48345 0 4.17614C0 1.86882 1.86882 0 4.17614 0C6.48345 0 8.35227 1.86882 8.35227 4.17614Z" fill="#4DBDCC" fill-opacity="0.1"/>
<path fill-rule="evenodd" clip-rule="evenodd" d="M8.35227 25.0568C8.35227 27.3641 6.48345 29.2329 4.17614 29.2329C1.86882 29.2329 0 27.3641 0 25.0568C0 22.7495 1.86882 20.8807 4.17614 20.8807C6.48345 20.8807 8.35227 22.7495 8.35227 25.0568Z" fill="#4DBDCC" fill-opacity="0.1"/>
<path fill-rule="evenodd" clip-rule="evenodd" d="M30.625 25.0568C30.625 27.3641 28.7562 29.2329 26.4489 29.2329C24.1416 29.2329 22.2727 27.3641 22.2727 25.0568C22.2727 22.7495 24.1416 20.8807 26.4489 20.8807C28.7562 20.8807 30.625 22.7495 30.625 25.0568Z" fill="#4DBDCC" fill-opacity="0.1"/>
<path fill-rule="evenodd" clip-rule="evenodd" d="M51.5057 25.0568C51.5057 27.3641 49.6369 29.2329 47.3295 29.2329C45.0222 29.2329 43.1534 27.3641 43.1534 25.0568C43.1534 22.7495 45.0222 20.8807 47.3295 20.8807C49.6369 20.8807 51.5057 22.7495 51.5057 25.0568Z" fill="#4DBDCC" fill-opacity="0.1"/>
<path fill-rule="evenodd" clip-rule="evenodd" d="M72.3864 25.0568C72.3864 27.3641 70.5175 29.2329 68.2102 29.2329C65.9029 29.2329 64.0341 27.3641 64.0341 25.0568C64.0341 22.7495 65.9029 20.8807 68.2102 20.8807C70.5175 20.8807 72.3864 22.7495 72.3864 25.0568Z" fill="#4DBDCC" fill-opacity="0.1"/>
<path fill-rule="evenodd" clip-rule="evenodd" d="M94.6591 25.0568C94.6591 27.3641 92.7903 29.2329 90.483 29.2329C88.1756 29.2329 86.3068 27.3641 86.3068 25.0568C86.3068 22.7495 88.1756 20.8807 90.483 20.8807C92.7903 20.8807 94.6591 22.7495 94.6591 25.0568Z" fill="#4DBDCC" fill-opacity="0.1"/>
<path fill-rule="evenodd" clip-rule="evenodd" d="M115.54 25.0568C115.54 27.3641 113.671 29.2329 111.364 29.2329C109.056 29.2329 107.188 27.3641 107.188 25.0568C107.188 22.7495 109.056 20.8807 111.364 20.8807C113.671 20.8807 115.54 22.7495 115.54 25.0568Z" fill="#4DBDCC" fill-opacity="0.1"/>
<path fill-rule="evenodd" clip-rule="evenodd" d="M137.812 25.0568C137.812 27.3641 135.944 29.2329 133.636 29.2329C131.329 29.2329 129.46 27.3641 129.46 25.0568C129.46 22.7495 131.329 20.8807 133.636 20.8807C135.944 20.8807 137.812 22.7495 137.812 25.0568Z" fill="#4DBDCC" fill-opacity="0.1"/>
<path fill-rule="evenodd" clip-rule="evenodd" d="M158.693 25.0568C158.693 27.3641 156.824 29.2329 154.517 29.2329C152.21 29.2329 150.341 27.3641 150.341 25.0568C150.341 22.7495 152.21 20.8807 154.517 20.8807C156.824 20.8807 158.693 22.7495 158.693 25.0568Z" fill="#4DBDCC" fill-opacity="0.1"/>
<path fill-rule="evenodd" clip-rule="evenodd" d="M180.966 25.0568C180.966 27.3641 179.097 29.2329 176.79 29.2329C174.482 29.2329 172.614 27.3641 172.614 25.0568C172.614 22.7495 174.482 20.8807 176.79 20.8807C179.097 20.8807 180.966 22.7495 180.966 25.0568Z" fill="#4DBDCC" fill-opacity="0.1"/>
<path fill-rule="evenodd" clip-rule="evenodd" d="M201.847 25.0568C201.847 27.3641 199.978 29.2329 197.67 29.2329C195.363 29.2329 193.494 27.3641 193.494 25.0568C193.494 22.7495 195.363 20.8807 197.67 20.8807C199.978 20.8807 201.847 22.7495 201.847 25.0568Z" fill="#4DBDCC" fill-opacity="0.1"/>
<path fill-rule="evenodd" clip-rule="evenodd" d="M222.727 25.0568C222.727 27.3641 220.858 29.2329 218.551 29.2329C216.244 29.2329 214.375 27.3641 214.375 25.0568C214.375 22.7495 216.244 20.8807 218.551 20.8807C220.858 20.8807 222.727 22.7495 222.727 25.0568Z" fill="#4DBDCC" fill-opacity="0.1"/>
<path fill-rule="evenodd" clip-rule="evenodd" d="M245 25.0568C245 27.3641 243.131 29.2329 240.824 29.2329C238.517 29.2329 236.648 27.3641 236.648 25.0568C236.648 22.7495 238.517 20.8807 240.824 20.8807C243.131 20.8807 245 22.7495 245 25.0568Z" fill="#4DBDCC" fill-opacity="0.1"/>
<path fill-rule="evenodd" clip-rule="evenodd" d="M8.35227 47.3295C8.35227 49.6368 6.48345 51.5057 4.17614 51.5057C1.86882 51.5057 0 49.6368 0 47.3295C0 45.0222 1.86882 43.1534 4.17614 43.1534C6.48345 43.1534 8.35227 45.0222 8.35227 47.3295Z" fill="#4DBDCC" fill-opacity="0.1"/>
<path fill-rule="evenodd" clip-rule="evenodd" d="M30.625 47.3295C30.625 49.6368 28.7562 51.5057 26.4489 51.5057C24.1416 51.5057 22.2727 49.6368 22.2727 47.3295C22.2727 45.0222 24.1416 43.1534 26.4489 43.1534C28.7562 43.1534 30.625 45.0222 30.625 47.3295Z" fill="#4DBDCC" fill-opacity="0.1"/>
<path fill-rule="evenodd" clip-rule="evenodd" d="M51.5057 47.3295C51.5057 49.6368 49.6369 51.5057 47.3295 51.5057C45.0222 51.5057 43.1534 49.6368 43.1534 47.3295C43.1534 45.0222 45.0222 43.1534 47.3295 43.1534C49.6369 43.1534 51.5057 45.0222 51.5057 47.3295Z" fill="#4DBDCC" fill-opacity="0.1"/>
<path fill-rule="evenodd" clip-rule="evenodd" d="M72.3864 47.3295C72.3864 49.6368 70.5175 51.5057 68.2102 51.5057C65.9029 51.5057 64.0341 49.6368 64.0341 47.3295C64.0341 45.0222 65.9029 43.1534 68.2102 43.1534C70.5175 43.1534 72.3864 45.0222 72.3864 47.3295Z" fill="#4DBDCC" fill-opacity="0.1"/>
<path fill-rule="evenodd" clip-rule="evenodd" d="M94.6591 47.3295C94.6591 49.6368 92.7903 51.5057 90.483 51.5057C88.1756 51.5057 86.3068 49.6368 86.3068 47.3295C86.3068 45.0222 88.1756 43.1534 90.483 43.1534C92.7903 43.1534 94.6591 45.0222 94.6591 47.3295Z" fill="#4DBDCC" fill-opacity="0.1"/>
<path fill-rule="evenodd" clip-rule="evenodd" d="M115.54 47.3295C115.54 49.6368 113.671 51.5057 111.364 51.5057C109.056 51.5057 107.188 49.6368 107.188 47.3295C107.188 45.0222 109.056 43.1534 111.364 43.1534C113.671 43.1534 115.54 45.0222 115.54 47.3295Z" fill="#4DBDCC" fill-opacity="0.1"/>
<path fill-rule="evenodd" clip-rule="evenodd" d="M137.812 47.3295C137.812 49.6368 135.944 51.5057 133.636 51.5057C131.329 51.5057 129.46 49.6368 129.46 47.3295C129.46 45.0222 131.329 43.1534 133.636 43.1534C135.944 43.1534 137.812 45.0222 137.812 47.3295Z" fill="#4DBDCC" fill-opacity="0.1"/>
<path fill-rule="evenodd" clip-rule="evenodd" d="M158.693 47.3295C158.693 49.6368 156.824 51.5057 154.517 51.5057C152.21 51.5057 150.341 49.6368 150.341 47.3295C150.341 45.0222 152.21 43.1534 154.517 43.1534C156.824 43.1534 158.693 45.0222 158.693 47.3295Z" fill="#4DBDCC" fill-opacity="0.1"/>
<path fill-rule="evenodd" clip-rule="evenodd" d="M180.966 47.3295C180.966 49.6368 179.097 51.5057 176.79 51.5057C174.482 51.5057 172.614 49.6368 172.614 47.3295C172.614 45.0222 174.482 43.1534 176.79 43.1534C179.097 43.1534 180.966 45.0222 180.966 47.3295Z" fill="#4DBDCC" fill-opacity="0.1"/>
<path fill-rule="evenodd" clip-rule="evenodd" d="M201.847 47.3295C201.847 49.6368 199.978 51.5057 197.67 51.5057C195.363 51.5057 193.494 49.6368 193.494 47.3295C193.494 45.0222 195.363 43.1534 197.67 43.1534C199.978 43.1534 201.847 45.0222 201.847 47.3295Z" fill="#4DBDCC" fill-opacity="0.1"/>
<path fill-rule="evenodd" clip-rule="evenodd" d="M222.727 47.3295C222.727 49.6368 220.858 51.5057 218.551 51.5057C216.244 51.5057 214.375 49.6368 214.375 47.3295C214.375 45.0222 216.244 43.1534 218.551 43.1534C220.858 43.1534 222.727 45.0222 222.727 47.3295Z" fill="#4DBDCC" fill-opacity="0.1"/>
<path fill-rule="evenodd" clip-rule="evenodd" d="M245 47.3295C245 49.6368 243.131 51.5057 240.824 51.5057C238.517 51.5057 236.648 49.6368 236.648 47.3295C236.648 45.0222 238.517 43.1534 240.824 43.1534C243.131 43.1534 245 45.0222 245 47.3295Z" fill="#4DBDCC" fill-opacity="0.1"/>
<path fill-rule="evenodd" clip-rule="evenodd" d="M8.35227 68.2103C8.35227 70.5176 6.48345 72.3864 4.17614 72.3864C1.86882 72.3864 0 70.5176 0 68.2103C0 65.9029 1.86882 64.0341 4.17614 64.0341C6.48345 64.0341 8.35227 65.9029 8.35227 68.2103Z" fill="#4DBDCC" fill-opacity="0.1"/>
<path fill-rule="evenodd" clip-rule="evenodd" d="M30.625 68.2103C30.625 70.5176 28.7562 72.3864 26.4489 72.3864C24.1416 72.3864 22.2727 70.5176 22.2727 68.2103C22.2727 65.9029 24.1416 64.0341 26.4489 64.0341C28.7562 64.0341 30.625 65.9029 30.625 68.2103Z" fill="#4DBDCC" fill-opacity="0.1"/>
<path fill-rule="evenodd" clip-rule="evenodd" d="M51.5057 68.2103C51.5057 70.5176 49.6369 72.3864 47.3295 72.3864C45.0222 72.3864 43.1534 70.5176 43.1534 68.2103C43.1534 65.9029 45.0222 64.0341 47.3295 64.0341C49.6369 64.0341 51.5057 65.9029 51.5057 68.2103Z" fill="#4DBDCC" fill-opacity="0.1"/>
<path fill-rule="evenodd" clip-rule="evenodd" d="M72.3864 68.2103C72.3864 70.5176 70.5175 72.3864 68.2102 72.3864C65.9029 72.3864 64.0341 70.5176 64.0341 68.2103C64.0341 65.9029 65.9029 64.0341 68.2102 64.0341C70.5175 64.0341 72.3864 65.9029 72.3864 68.2103Z" fill="#4DBDCC" fill-opacity="0.1"/>
<path fill-rule="evenodd" clip-rule="evenodd" d="M94.6591 68.2103C94.6591 70.5176 92.7903 72.3864 90.483 72.3864C88.1756 72.3864 86.3068 70.5176 86.3068 68.2103C86.3068 65.9029 88.1756 64.0341 90.483 64.0341C92.7903 64.0341 94.6591 65.9029 94.6591 68.2103Z" fill="#4DBDCC" fill-opacity="0.1"/>
<path fill-rule="evenodd" clip-rule="evenodd" d="M115.54 68.2103C115.54 70.5176 113.671 72.3864 111.364 72.3864C109.056 72.3864 107.188 70.5176 107.188 68.2103C107.188 65.9029 109.056 64.0341 111.364 64.0341C113.671 64.0341 115.54 65.9029 115.54 68.2103Z" fill="#4DBDCC" fill-opacity="0.1"/>
<path fill-rule="evenodd" clip-rule="evenodd" d="M137.812 68.2103C137.812 70.5176 135.944 72.3864 133.636 72.3864C131.329 72.3864 129.46 70.5176 129.46 68.2103C129.46 65.9029 131.329 64.0341 133.636 64.0341C135.944 64.0341 137.812 65.9029 137.812 68.2103Z" fill="#4DBDCC" fill-opacity="0.1"/>
<path fill-rule="evenodd" clip-rule="evenodd" d="M158.693 68.2103C158.693 70.5176 156.824 72.3864 154.517 72.3864C152.21 72.3864 150.341 70.5176 150.341 68.2103C150.341 65.9029 152.21 64.0341 154.517 64.0341C156.824 64.0341 158.693 65.9029 158.693 68.2103Z" fill="#4DBDCC" fill-opacity="0.1"/>
<path fill-rule="evenodd" clip-rule="evenodd" d="M180.966 68.2103C180.966 70.5176 179.097 72.3864 176.79 72.3864C174.482 72.3864 172.614 70.5176 172.614 68.2103C172.614 65.9029 174.482 64.0341 176.79 64.0341C179.097 64.0341 180.966 65.9029 180.966 68.2103Z" fill="#4DBDCC" fill-opacity="0.1"/>
<path fill-rule="evenodd" clip-rule="evenodd" d="M201.847 68.2103C201.847 70.5176 199.978 72.3864 197.67 72.3864C195.363 72.3864 193.494 70.5176 193.494 68.2103C193.494 65.9029 195.363 64.0341 197.67 64.0341C199.978 64.0341 201.847 65.9029 201.847 68.2103Z" fill="#4DBDCC" fill-opacity="0.1"/>
<path fill-rule="evenodd" clip-rule="evenodd" d="M222.727 68.2103C222.727 70.5176 220.858 72.3864 218.551 72.3864C216.244 72.3864 214.375 70.5176 214.375 68.2103C214.375 65.9029 216.244 64.0341 218.551 64.0341C220.858 64.0341 222.727 65.9029 222.727 68.2103Z" fill="#4DBDCC" fill-opacity="0.1"/>
<path fill-rule="evenodd" clip-rule="evenodd" d="M245 68.2103C245 70.5176 243.131 72.3864 240.824 72.3864C238.517 72.3864 236.648 70.5176 236.648 68.2103C236.648 65.9029 238.517 64.0341 240.824 64.0341C243.131 64.0341 245 65.9029 245 68.2103Z" fill="#4DBDCC" fill-opacity="0.1"/>
<path fill-rule="evenodd" clip-rule="evenodd" d="M8.35227 90.483C8.35227 92.7903 6.48345 94.6591 4.17614 94.6591C1.86882 94.6591 0 92.7903 0 90.483C0 88.1756 1.86882 86.3068 4.17614 86.3068C6.48345 86.3068 8.35227 88.1756 8.35227 90.483Z" fill="#4DBDCC" fill-opacity="0.1"/>
<path fill-rule="evenodd" clip-rule="evenodd" d="M30.625 90.483C30.625 92.7903 28.7562 94.6591 26.4489 94.6591C24.1416 94.6591 22.2727 92.7903 22.2727 90.483C22.2727 88.1756 24.1416 86.3068 26.4489 86.3068C28.7562 86.3068 30.625 88.1756 30.625 90.483Z" fill="#4DBDCC" fill-opacity="0.1"/>
<path fill-rule="evenodd" clip-rule="evenodd" d="M51.5057 90.483C51.5057 92.7903 49.6369 94.6591 47.3295 94.6591C45.0222 94.6591 43.1534 92.7903 43.1534 90.483C43.1534 88.1756 45.0222 86.3068 47.3295 86.3068C49.6369 86.3068 51.5057 88.1756 51.5057 90.483Z" fill="#4DBDCC" fill-opacity="0.1"/>
<path fill-rule="evenodd" clip-rule="evenodd" d="M72.3864 90.483C72.3864 92.7903 70.5175 94.6591 68.2102 94.6591C65.9029 94.6591 64.0341 92.7903 64.0341 90.483C64.0341 88.1756 65.9029 86.3068 68.2102 86.3068C70.5175 86.3068 72.3864 88.1756 72.3864 90.483Z" fill="#4DBDCC" fill-opacity="0.1"/>
<path fill-rule="evenodd" clip-rule="evenodd" d="M94.6591 90.483C94.6591 92.7903 92.7903 94.6591 90.483 94.6591C88.1756 94.6591 86.3068 92.7903 86.3068 90.483C86.3068 88.1756 88.1756 86.3068 90.483 86.3068C92.7903 86.3068 94.6591 88.1756 94.6591 90.483Z" fill="#4DBDCC" fill-opacity="0.1"/>
<path fill-rule="evenodd" clip-rule="evenodd" d="M115.54 90.483C115.54 92.7903 113.671 94.6591 111.364 94.6591C109.056 94.6591 107.188 92.7903 107.188 90.483C107.188 88.1756 109.056 86.3068 111.364 86.3068C113.671 86.3068 115.54 88.1756 115.54 90.483Z" fill="#4DBDCC" fill-opacity="0.1"/>
<path fill-rule="evenodd" clip-rule="evenodd" d="M137.812 90.483C137.812 92.7903 135.944 94.6591 133.636 94.6591C131.329 94.6591 129.46 92.7903 129.46 90.483C129.46 88.1756 131.329 86.3068 133.636 86.3068C135.944 86.3068 137.812 88.1756 137.812 90.483Z" fill="#4DBDCC" fill-opacity="0.1"/>
<path fill-rule="evenodd" clip-rule="evenodd" d="M158.693 90.483C158.693 92.7903 156.824 94.6591 154.517 94.6591C152.21 94.6591 150.341 92.7903 150.341 90.483C150.341 88.1756 152.21 86.3068 154.517 86.3068C156.824 86.3068 158.693 88.1756 158.693 90.483Z" fill="#4DBDCC" fill-opacity="0.1"/>
<path fill-rule="evenodd" clip-rule="evenodd" d="M180.966 90.483C180.966 92.7903 179.097 94.6591 176.79 94.6591C174.482 94.6591 172.614 92.7903 172.614 90.483C172.614 88.1756 174.482 86.3068 176.79 86.3068C179.097 86.3068 180.966 88.1756 180.966 90.483Z" fill="#4DBDCC" fill-opacity="0.1"/>
<path fill-rule="evenodd" clip-rule="evenodd" d="M201.847 90.483C201.847 92.7903 199.978 94.6591 197.67 94.6591C195.363 94.6591 193.494 92.7903 193.494 90.483C193.494 88.1756 195.363 86.3068 197.67 86.3068C199.978 86.3068 201.847 88.1756 201.847 90.483Z" fill="#4DBDCC" fill-opacity="0.1"/>
<path fill-rule="evenodd" clip-rule="evenodd" d="M222.727 90.483C222.727 92.7903 220.858 94.6591 218.551 94.6591C216.244 94.6591 214.375 92.7903 214.375 90.483C214.375 88.1756 216.244 86.3068 218.551 86.3068C220.858 86.3068 222.727 88.1756 222.727 90.483Z" fill="#4DBDCC" fill-opacity="0.1"/>
<path fill-rule="evenodd" clip-rule="evenodd" d="M245 90.483C245 92.7903 243.131 94.6591 240.824 94.6591C238.517 94.6591 236.648 92.7903 236.648 90.483C236.648 88.1756 238.517 86.3068 240.824 86.3068C243.131 86.3068 245 88.1756 245 90.483Z" fill="#4DBDCC" fill-opacity="0.1"/>
<path fill-rule="evenodd" clip-rule="evenodd" d="M8.35227 111.364C8.35227 113.671 6.48345 115.54 4.17614 115.54C1.86882 115.54 0 113.671 0 111.364C0 109.056 1.86882 107.188 4.17614 107.188C6.48345 107.188 8.35227 109.056 8.35227 111.364Z" fill="#4DBDCC" fill-opacity="0.1"/>
<path fill-rule="evenodd" clip-rule="evenodd" d="M30.625 111.364C30.625 113.671 28.7562 115.54 26.4489 115.54C24.1416 115.54 22.2727 113.671 22.2727 111.364C22.2727 109.056 24.1416 107.188 26.4489 107.188C28.7562 107.188 30.625 109.056 30.625 111.364Z" fill="#4DBDCC" fill-opacity="0.1"/>
<path fill-rule="evenodd" clip-rule="evenodd" d="M51.5057 111.364C51.5057 113.671 49.6369 115.54 47.3295 115.54C45.0222 115.54 43.1534 113.671 43.1534 111.364C43.1534 109.056 45.0222 107.188 47.3295 107.188C49.6369 107.188 51.5057 109.056 51.5057 111.364Z" fill="#4DBDCC" fill-opacity="0.1"/>
<path fill-rule="evenodd" clip-rule="evenodd" d="M72.3864 111.364C72.3864 113.671 70.5175 115.54 68.2102 115.54C65.9029 115.54 64.0341 113.671 64.0341 111.364C64.0341 109.056 65.9029 107.188 68.2102 107.188C70.5175 107.188 72.3864 109.056 72.3864 111.364Z" fill="#4DBDCC" fill-opacity="0.1"/>
<path fill-rule="evenodd" clip-rule="evenodd" d="M94.6591 111.364C94.6591 113.671 92.7903 115.54 90.483 115.54C88.1756 115.54 86.3068 113.671 86.3068 111.364C86.3068 109.056 88.1756 107.188 90.483 107.188C92.7903 107.188 94.6591 109.056 94.6591 111.364Z" fill="#4DBDCC" fill-opacity="0.1"/>
<path fill-rule="evenodd" clip-rule="evenodd" d="M115.54 111.364C115.54 113.671 113.671 115.54 111.364 115.54C109.056 115.54 107.188 113.671 107.188 111.364C107.188 109.056 109.056 107.188 111.364 107.188C113.671 107.188 115.54 109.056 115.54 111.364Z" fill="#4DBDCC" fill-opacity="0.1"/>
<path fill-rule="evenodd" clip-rule="evenodd" d="M137.812 111.364C137.812 113.671 135.944 115.54 133.636 115.54C131.329 115.54 129.46 113.671 129.46 111.364C129.46 109.056 131.329 107.188 133.636 107.188C135.944 107.188 137.812 109.056 137.812 111.364Z" fill="#4DBDCC" fill-opacity="0.1"/>
<path fill-rule="evenodd" clip-rule="evenodd" d="M158.693 111.364C158.693 113.671 156.824 115.54 154.517 115.54C152.21 115.54 150.341 113.671 150.341 111.364C150.341 109.056 152.21 107.188 154.517 107.188C156.824 107.188 158.693 109.056 158.693 111.364Z" fill="#4DBDCC" fill-opacity="0.1"/>
<path fill-rule="evenodd" clip-rule="evenodd" d="M180.966 111.364C180.966 113.671 179.097 115.54 176.79 115.54C174.482 115.54 172.614 113.671 172.614 111.364C172.614 109.056 174.482 107.188 176.79 107.188C179.097 107.188 180.966 109.056 180.966 111.364Z" fill="#4DBDCC" fill-opacity="0.1"/>
<path fill-rule="evenodd" clip-rule="evenodd" d="M201.847 111.364C201.847 113.671 199.978 115.54 197.67 115.54C195.363 115.54 193.494 113.671 193.494 111.364C193.494 109.056 195.363 107.188 197.67 107.188C199.978 107.188 201.847 109.056 201.847 111.364Z" fill="#4DBDCC" fill-opacity="0.1"/>
<path fill-rule="evenodd" clip-rule="evenodd" d="M222.727 111.364C222.727 113.671 220.858 115.54 218.551 115.54C216.244 115.54 214.375 113.671 214.375 111.364C214.375 109.056 216.244 107.188 218.551 107.188C220.858 107.188 222.727 109.056 222.727 111.364Z" fill="#4DBDCC" fill-opacity="0.1"/>
<path fill-rule="evenodd" clip-rule="evenodd" d="M245 111.364C245 113.671 243.131 115.54 240.824 115.54C238.517 115.54 236.648 113.671 236.648 111.364C236.648 109.056 238.517 107.188 240.824 107.188C243.131 107.188 245 109.056 245 111.364Z" fill="#4DBDCC" fill-opacity="0.1"/>
<path fill-rule="evenodd" clip-rule="evenodd" d="M8.35227 133.636C8.35227 135.944 6.48345 137.812 4.17614 137.812C1.86882 137.812 0 135.944 0 133.636C0 131.329 1.86882 129.46 4.17614 129.46C6.48345 129.46 8.35227 131.329 8.35227 133.636Z" fill="#4DBDCC" fill-opacity="0.1"/>
<path fill-rule="evenodd" clip-rule="evenodd" d="M30.625 133.636C30.625 135.944 28.7562 137.812 26.4489 137.812C24.1416 137.812 22.2727 135.944 22.2727 133.636C22.2727 131.329 24.1416 129.46 26.4489 129.46C28.7562 129.46 30.625 131.329 30.625 133.636Z" fill="#4DBDCC" fill-opacity="0.1"/>
<path fill-rule="evenodd" clip-rule="evenodd" d="M51.5057 133.636C51.5057 135.944 49.6369 137.812 47.3295 137.812C45.0222 137.812 43.1534 135.944 43.1534 133.636C43.1534 131.329 45.0222 129.46 47.3295 129.46C49.6369 129.46 51.5057 131.329 51.5057 133.636Z" fill="#4DBDCC" fill-opacity="0.1"/>
<path fill-rule="evenodd" clip-rule="evenodd" d="M72.3864 133.636C72.3864 135.944 70.5175 137.812 68.2102 137.812C65.9029 137.812 64.0341 135.944 64.0341 133.636C64.0341 131.329 65.9029 129.46 68.2102 129.46C70.5175 129.46 72.3864 131.329 72.3864 133.636Z" fill="#4DBDCC" fill-opacity="0.1"/>
<path fill-rule="evenodd" clip-rule="evenodd" d="M94.6591 133.636C94.6591 135.944 92.7903 137.812 90.483 137.812C88.1756 137.812 86.3068 135.944 86.3068 133.636C86.3068 131.329 88.1756 129.46 90.483 129.46C92.7903 129.46 94.6591 131.329 94.6591 133.636Z" fill="#4DBDCC" fill-opacity="0.1"/>
<path fill-rule="evenodd" clip-rule="evenodd" d="M115.54 133.636C115.54 135.944 113.671 137.812 111.364 137.812C109.056 137.812 107.188 135.944 107.188 133.636C107.188 131.329 109.056 129.46 111.364 129.46C113.671 129.46 115.54 131.329 115.54 133.636Z" fill="#4DBDCC" fill-opacity="0.1"/>
<path fill-rule="evenodd" clip-rule="evenodd" d="M137.812 133.636C137.812 135.944 135.944 137.812 133.636 137.812C131.329 137.812 129.46 135.944 129.46 133.636C129.46 131.329 131.329 129.46 133.636 129.46C135.944 129.46 137.812 131.329 137.812 133.636Z" fill="#4DBDCC" fill-opacity="0.1"/>
<path fill-rule="evenodd" clip-rule="evenodd" d="M158.693 133.636C158.693 135.944 156.824 137.812 154.517 137.812C152.21 137.812 150.341 135.944 150.341 133.636C150.341 131.329 152.21 129.46 154.517 129.46C156.824 129.46 158.693 131.329 158.693 133.636Z" fill="#4DBDCC" fill-opacity="0.1"/>
<path fill-rule="evenodd" clip-rule="evenodd" d="M180.966 133.636C180.966 135.944 179.097 137.812 176.79 137.812C174.482 137.812 172.614 135.944 172.614 133.636C172.614 131.329 174.482 129.46 176.79 129.46C179.097 129.46 180.966 131.329 180.966 133.636Z" fill="#4DBDCC" fill-opacity="0.1"/>
<path fill-rule="evenodd" clip-rule="evenodd" d="M201.847 133.636C201.847 135.944 199.978 137.812 197.67 137.812C195.363 137.812 193.494 135.944 193.494 133.636C193.494 131.329 195.363 129.46 197.67 129.46C199.978 129.46 201.847 131.329 201.847 133.636Z" fill="#4DBDCC" fill-opacity="0.1"/>
<path fill-rule="evenodd" clip-rule="evenodd" d="M222.727 133.636C222.727 135.944 220.858 137.812 218.551 137.812C216.244 137.812 214.375 135.944 214.375 133.636C214.375 131.329 216.244 129.46 218.551 129.46C220.858 129.46 222.727 131.329 222.727 133.636Z" fill="#4DBDCC" fill-opacity="0.1"/>
<path fill-rule="evenodd" clip-rule="evenodd" d="M245 133.636C245 135.944 243.131 137.812 240.824 137.812C238.517 137.812 236.648 135.944 236.648 133.636C236.648 131.329 238.517 129.46 240.824 129.46C243.131 129.46 245 131.329 245 133.636Z" fill="#4DBDCC" fill-opacity="0.1"/>
<path fill-rule="evenodd" clip-rule="evenodd" d="M8.35227 154.517C8.35227 156.824 6.48345 158.693 4.17614 158.693C1.86882 158.693 0 156.824 0 154.517C0 152.21 1.86882 150.341 4.17614 150.341C6.48345 150.341 8.35227 152.21 8.35227 154.517Z" fill="#4DBDCC" fill-opacity="0.1"/>
<path fill-rule="evenodd" clip-rule="evenodd" d="M30.625 154.517C30.625 156.824 28.7562 158.693 26.4489 158.693C24.1416 158.693 22.2727 156.824 22.2727 154.517C22.2727 152.21 24.1416 150.341 26.4489 150.341C28.7562 150.341 30.625 152.21 30.625 154.517Z" fill="#4DBDCC" fill-opacity="0.1"/>
<path fill-rule="evenodd" clip-rule="evenodd" d="M51.5057 154.517C51.5057 156.824 49.6369 158.693 47.3295 158.693C45.0222 158.693 43.1534 156.824 43.1534 154.517C43.1534 152.21 45.0222 150.341 47.3295 150.341C49.6369 150.341 51.5057 152.21 51.5057 154.517Z" fill="#4DBDCC" fill-opacity="0.1"/>
<path fill-rule="evenodd" clip-rule="evenodd" d="M72.3864 154.517C72.3864 156.824 70.5175 158.693 68.2102 158.693C65.9029 158.693 64.0341 156.824 64.0341 154.517C64.0341 152.21 65.9029 150.341 68.2102 150.341C70.5175 150.341 72.3864 152.21 72.3864 154.517Z" fill="#4DBDCC" fill-opacity="0.1"/>
<path fill-rule="evenodd" clip-rule="evenodd" d="M94.6591 154.517C94.6591 156.824 92.7903 158.693 90.483 158.693C88.1756 158.693 86.3068 156.824 86.3068 154.517C86.3068 152.21 88.1756 150.341 90.483 150.341C92.7903 150.341 94.6591 152.21 94.6591 154.517Z" fill="#4DBDCC" fill-opacity="0.1"/>
<path fill-rule="evenodd" clip-rule="evenodd" d="M115.54 154.517C115.54 156.824 113.671 158.693 111.364 158.693C109.056 158.693 107.188 156.824 107.188 154.517C107.188 152.21 109.056 150.341 111.364 150.341C113.671 150.341 115.54 152.21 115.54 154.517Z" fill="#4DBDCC" fill-opacity="0.1"/>
<path fill-rule="evenodd" clip-rule="evenodd" d="M137.812 154.517C137.812 156.824 135.944 158.693 133.636 158.693C131.329 158.693 129.46 156.824 129.46 154.517C129.46 152.21 131.329 150.341 133.636 150.341C135.944 150.341 137.812 152.21 137.812 154.517Z" fill="#4DBDCC" fill-opacity="0.1"/>
<path fill-rule="evenodd" clip-rule="evenodd" d="M158.693 154.517C158.693 156.824 156.824 158.693 154.517 158.693C152.21 158.693 150.341 156.824 150.341 154.517C150.341 152.21 152.21 150.341 154.517 150.341C156.824 150.341 158.693 152.21 158.693 154.517Z" fill="#4DBDCC" fill-opacity="0.1"/>
<path fill-rule="evenodd" clip-rule="evenodd" d="M180.966 154.517C180.966 156.824 179.097 158.693 176.79 158.693C174.482 158.693 172.614 156.824 172.614 154.517C172.614 152.21 174.482 150.341 176.79 150.341C179.097 150.341 180.966 152.21 180.966 154.517Z" fill="#4DBDCC" fill-opacity="0.1"/>
<path fill-rule="evenodd" clip-rule="evenodd" d="M201.847 154.517C201.847 156.824 199.978 158.693 197.67 158.693C195.363 158.693 193.494 156.824 193.494 154.517C193.494 152.21 195.363 150.341 197.67 150.341C199.978 150.341 201.847 152.21 201.847 154.517Z" fill="#4DBDCC" fill-opacity="0.1"/>
<path fill-rule="evenodd" clip-rule="evenodd" d="M222.727 154.517C222.727 156.824 220.858 158.693 218.551 158.693C216.244 158.693 214.375 156.824 214.375 154.517C214.375 152.21 216.244 150.341 218.551 150.341C220.858 150.341 222.727 152.21 222.727 154.517Z" fill="#4DBDCC" fill-opacity="0.1"/>
<path fill-rule="evenodd" clip-rule="evenodd" d="M245 154.517C245 156.824 243.131 158.693 240.824 158.693C238.517 158.693 236.648 156.824 236.648 154.517C236.648 152.21 238.517 150.341 240.824 150.341C243.131 150.341 245 152.21 245 154.517Z" fill="#4DBDCC" fill-opacity="0.1"/>
<path fill-rule="evenodd" clip-rule="evenodd" d="M8.35227 175.398C8.35227 177.705 6.48345 179.574 4.17614 179.574C1.86882 179.574 0 177.705 0 175.398C0 173.09 1.86882 171.222 4.17614 171.222C6.48345 171.222 8.35227 173.09 8.35227 175.398Z" fill="#4DBDCC" fill-opacity="0.1"/>
<path fill-rule="evenodd" clip-rule="evenodd" d="M30.625 175.398C30.625 177.705 28.7562 179.574 26.4489 179.574C24.1416 179.574 22.2727 177.705 22.2727 175.398C22.2727 173.09 24.1416 171.222 26.4489 171.222C28.7562 171.222 30.625 173.09 30.625 175.398Z" fill="#4DBDCC" fill-opacity="0.1"/>
<path fill-rule="evenodd" clip-rule="evenodd" d="M51.5057 175.398C51.5057 177.705 49.6369 179.574 47.3295 179.574C45.0222 179.574 43.1534 177.705 43.1534 175.398C43.1534 173.09 45.0222 171.222 47.3295 171.222C49.6369 171.222 51.5057 173.09 51.5057 175.398Z" fill="#4DBDCC" fill-opacity="0.1"/>
<path fill-rule="evenodd" clip-rule="evenodd" d="M72.3864 175.398C72.3864 177.705 70.5175 179.574 68.2102 179.574C65.9029 179.574 64.0341 177.705 64.0341 175.398C64.0341 173.09 65.9029 171.222 68.2102 171.222C70.5175 171.222 72.3864 173.09 72.3864 175.398Z" fill="#4DBDCC" fill-opacity="0.1"/>
<path fill-rule="evenodd" clip-rule="evenodd" d="M94.6591 175.398C94.6591 177.705 92.7903 179.574 90.483 179.574C88.1756 179.574 86.3068 177.705 86.3068 175.398C86.3068 173.09 88.1756 171.222 90.483 171.222C92.7903 171.222 94.6591 173.09 94.6591 175.398Z" fill="#4DBDCC" fill-opacity="0.1"/>
<path fill-rule="evenodd" clip-rule="evenodd" d="M115.54 175.398C115.54 177.705 113.671 179.574 111.364 179.574C109.056 179.574 107.188 177.705 107.188 175.398C107.188 173.09 109.056 171.222 111.364 171.222C113.671 171.222 115.54 173.09 115.54 175.398Z" fill="#4DBDCC" fill-opacity="0.1"/>
<path fill-rule="evenodd" clip-rule="evenodd" d="M137.812 175.398C137.812 177.705 135.944 179.574 133.636 179.574C131.329 179.574 129.46 177.705 129.46 175.398C129.46 173.09 131.329 171.222 133.636 171.222C135.944 171.222 137.812 173.09 137.812 175.398Z" fill="#4DBDCC" fill-opacity="0.1"/>
<path fill-rule="evenodd" clip-rule="evenodd" d="M158.693 175.398C158.693 177.705 156.824 179.574 154.517 179.574C152.21 179.574 150.341 177.705 150.341 175.398C150.341 173.09 152.21 171.222 154.517 171.222C156.824 171.222 158.693 173.09 158.693 175.398Z" fill="#4DBDCC" fill-opacity="0.1"/>
<path fill-rule="evenodd" clip-rule="evenodd" d="M180.966 175.398C180.966 177.705 179.097 179.574 176.79 179.574C174.482 179.574 172.614 177.705 172.614 175.398C172.614 173.09 174.482 171.222 176.79 171.222C179.097 171.222 180.966 173.09 180.966 175.398Z" fill="#4DBDCC" fill-opacity="0.1"/>
<path fill-rule="evenodd" clip-rule="evenodd" d="M201.847 175.398C201.847 177.705 199.978 179.574 197.67 179.574C195.363 179.574 193.494 177.705 193.494 175.398C193.494 173.09 195.363 171.222 197.67 171.222C199.978 171.222 201.847 173.09 201.847 175.398Z" fill="#4DBDCC" fill-opacity="0.1"/>
<path fill-rule="evenodd" clip-rule="evenodd" d="M222.727 175.398C222.727 177.705 220.858 179.574 218.551 179.574C216.244 179.574 214.375 177.705 214.375 175.398C214.375 173.09 216.244 171.222 218.551 171.222C220.858 171.222 222.727 173.09 222.727 175.398Z" fill="#4DBDCC" fill-opacity="0.1"/>
<path fill-rule="evenodd" clip-rule="evenodd" d="M245 175.398C245 177.705 243.131 179.574 240.824 179.574C238.517 179.574 236.648 177.705 236.648 175.398C236.648 173.09 238.517 171.222 240.824 171.222C243.131 171.222 245 173.09 245 175.398Z" fill="#4DBDCC" fill-opacity="0.1"/>
<path fill-rule="evenodd" clip-rule="evenodd" d="M8.35227 197.67C8.35227 199.978 6.48345 201.847 4.17614 201.847C1.86882 201.847 0 199.978 0 197.67C0 195.363 1.86882 193.494 4.17614 193.494C6.48345 193.494 8.35227 195.363 8.35227 197.67Z" fill="#4DBDCC" fill-opacity="0.1"/>
<path fill-rule="evenodd" clip-rule="evenodd" d="M30.625 197.67C30.625 199.978 28.7562 201.847 26.4489 201.847C24.1416 201.847 22.2727 199.978 22.2727 197.67C22.2727 195.363 24.1416 193.494 26.4489 193.494C28.7562 193.494 30.625 195.363 30.625 197.67Z" fill="#4DBDCC" fill-opacity="0.1"/>
<path fill-rule="evenodd" clip-rule="evenodd" d="M51.5057 197.67C51.5057 199.978 49.6369 201.847 47.3295 201.847C45.0222 201.847 43.1534 199.978 43.1534 197.67C43.1534 195.363 45.0222 193.494 47.3295 193.494C49.6369 193.494 51.5057 195.363 51.5057 197.67Z" fill="#4DBDCC" fill-opacity="0.1"/>
<path fill-rule="evenodd" clip-rule="evenodd" d="M72.3864 197.67C72.3864 199.978 70.5175 201.847 68.2102 201.847C65.9029 201.847 64.0341 199.978 64.0341 197.67C64.0341 195.363 65.9029 193.494 68.2102 193.494C70.5175 193.494 72.3864 195.363 72.3864 197.67Z" fill="#4DBDCC" fill-opacity="0.1"/>
<path fill-rule="evenodd" clip-rule="evenodd" d="M94.6591 197.67C94.6591 199.978 92.7903 201.847 90.483 201.847C88.1756 201.847 86.3068 199.978 86.3068 197.67C86.3068 195.363 88.1756 193.494 90.483 193.494C92.7903 193.494 94.6591 195.363 94.6591 197.67Z" fill="#4DBDCC" fill-opacity="0.1"/>
<path fill-rule="evenodd" clip-rule="evenodd" d="M115.54 197.67C115.54 199.978 113.671 201.847 111.364 201.847C109.056 201.847 107.188 199.978 107.188 197.67C107.188 195.363 109.056 193.494 111.364 193.494C113.671 193.494 115.54 195.363 115.54 197.67Z" fill="#4DBDCC" fill-opacity="0.1"/>
<path fill-rule="evenodd" clip-rule="evenodd" d="M137.812 197.67C137.812 199.978 135.944 201.847 133.636 201.847C131.329 201.847 129.46 199.978 129.46 197.67C129.46 195.363 131.329 193.494 133.636 193.494C135.944 193.494 137.812 195.363 137.812 197.67Z" fill="#4DBDCC" fill-opacity="0.1"/>
<path fill-rule="evenodd" clip-rule="evenodd" d="M158.693 197.67C158.693 199.978 156.824 201.847 154.517 201.847C152.21 201.847 150.341 199.978 150.341 197.67C150.341 195.363 152.21 193.494 154.517 193.494C156.824 193.494 158.693 195.363 158.693 197.67Z" fill="#4DBDCC" fill-opacity="0.1"/>
<path fill-rule="evenodd" clip-rule="evenodd" d="M180.966 197.67C180.966 199.978 179.097 201.847 176.79 201.847C174.482 201.847 172.614 199.978 172.614 197.67C172.614 195.363 174.482 193.494 176.79 193.494C179.097 193.494 180.966 195.363 180.966 197.67Z" fill="#4DBDCC" fill-opacity="0.1"/>
<path fill-rule="evenodd" clip-rule="evenodd" d="M201.847 197.67C201.847 199.978 199.978 201.847 197.67 201.847C195.363 201.847 193.494 199.978 193.494 197.67C193.494 195.363 195.363 193.494 197.67 193.494C199.978 193.494 201.847 195.363 201.847 197.67Z" fill="#4DBDCC" fill-opacity="0.1"/>
<path fill-rule="evenodd" clip-rule="evenodd" d="M222.727 197.67C222.727 199.978 220.858 201.847 218.551 201.847C216.244 201.847 214.375 199.978 214.375 197.67C214.375 195.363 216.244 193.494 218.551 193.494C220.858 193.494 222.727 195.363 222.727 197.67Z" fill="#4DBDCC" fill-opacity="0.1"/>
<path fill-rule="evenodd" clip-rule="evenodd" d="M245 197.67C245 199.978 243.131 201.847 240.824 201.847C238.517 201.847 236.648 199.978 236.648 197.67C236.648 195.363 238.517 193.494 240.824 193.494C243.131 193.494 245 195.363 245 197.67Z" fill="#4DBDCC" fill-opacity="0.1"/>
<path fill-rule="evenodd" clip-rule="evenodd" d="M8.35227 218.551C8.35227 220.858 6.48345 222.727 4.17614 222.727C1.86882 222.727 0 220.858 0 218.551C0 216.244 1.86882 214.375 4.17614 214.375C6.48345 214.375 8.35227 216.244 8.35227 218.551Z" fill="#4DBDCC" fill-opacity="0.1"/>
<path fill-rule="evenodd" clip-rule="evenodd" d="M30.625 218.551C30.625 220.858 28.7562 222.727 26.4489 222.727C24.1416 222.727 22.2727 220.858 22.2727 218.551C22.2727 216.244 24.1416 214.375 26.4489 214.375C28.7562 214.375 30.625 216.244 30.625 218.551Z" fill="#4DBDCC" fill-opacity="0.1"/>
<path fill-rule="evenodd" clip-rule="evenodd" d="M51.5057 218.551C51.5057 220.858 49.6369 222.727 47.3295 222.727C45.0222 222.727 43.1534 220.858 43.1534 218.551C43.1534 216.244 45.0222 214.375 47.3295 214.375C49.6369 214.375 51.5057 216.244 51.5057 218.551Z" fill="#4DBDCC" fill-opacity="0.1"/>
<path fill-rule="evenodd" clip-rule="evenodd" d="M72.3864 218.551C72.3864 220.858 70.5175 222.727 68.2102 222.727C65.9029 222.727 64.0341 220.858 64.0341 218.551C64.0341 216.244 65.9029 214.375 68.2102 214.375C70.5175 214.375 72.3864 216.244 72.3864 218.551Z" fill="#4DBDCC" fill-opacity="0.1"/>
<path fill-rule="evenodd" clip-rule="evenodd" d="M94.6591 218.551C94.6591 220.858 92.7903 222.727 90.483 222.727C88.1756 222.727 86.3068 220.858 86.3068 218.551C86.3068 216.244 88.1756 214.375 90.483 214.375C92.7903 214.375 94.6591 216.244 94.6591 218.551Z" fill="#4DBDCC" fill-opacity="0.1"/>
<path fill-rule="evenodd" clip-rule="evenodd" d="M115.54 218.551C115.54 220.858 113.671 222.727 111.364 222.727C109.056 222.727 107.188 220.858 107.188 218.551C107.188 216.244 109.056 214.375 111.364 214.375C113.671 214.375 115.54 216.244 115.54 218.551Z" fill="#4DBDCC" fill-opacity="0.1"/>
<path fill-rule="evenodd" clip-rule="evenodd" d="M137.812 218.551C137.812 220.858 135.944 222.727 133.636 222.727C131.329 222.727 129.46 220.858 129.46 218.551C129.46 216.244 131.329 214.375 133.636 214.375C135.944 214.375 137.812 216.244 137.812 218.551Z" fill="#4DBDCC" fill-opacity="0.1"/>
<path fill-rule="evenodd" clip-rule="evenodd" d="M158.693 218.551C158.693 220.858 156.824 222.727 154.517 222.727C152.21 222.727 150.341 220.858 150.341 218.551C150.341 216.244 152.21 214.375 154.517 214.375C156.824 214.375 158.693 216.244 158.693 218.551Z" fill="#4DBDCC" fill-opacity="0.1"/>
<path fill-rule="evenodd" clip-rule="evenodd" d="M180.966 218.551C180.966 220.858 179.097 222.727 176.79 222.727C174.482 222.727 172.614 220.858 172.614 218.551C172.614 216.244 174.482 214.375 176.79 214.375C179.097 214.375 180.966 216.244 180.966 218.551Z" fill="#4DBDCC" fill-opacity="0.1"/>
<path fill-rule="evenodd" clip-rule="evenodd" d="M201.847 218.551C201.847 220.858 199.978 222.727 197.67 222.727C195.363 222.727 193.494 220.858 193.494 218.551C193.494 216.244 195.363 214.375 197.67 214.375C199.978 214.375 201.847 216.244 201.847 218.551Z" fill="#4DBDCC" fill-opacity="0.1"/>
<path fill-rule="evenodd" clip-rule="evenodd" d="M222.727 218.551C222.727 220.858 220.858 222.727 218.551 222.727C216.244 222.727 214.375 220.858 214.375 218.551C214.375 216.244 216.244 214.375 218.551 214.375C220.858 214.375 222.727 216.244 222.727 218.551Z" fill="#4DBDCC" fill-opacity="0.1"/>
<path fill-rule="evenodd" clip-rule="evenodd" d="M245 218.551C245 220.858 243.131 222.727 240.824 222.727C238.517 222.727 236.648 220.858 236.648 218.551C236.648 216.244 238.517 214.375 240.824 214.375C243.131 214.375 245 216.244 245 218.551Z" fill="#4DBDCC" fill-opacity="0.1"/>
<path fill-rule="evenodd" clip-rule="evenodd" d="M8.35227 240.824C8.35227 243.131 6.48345 245 4.17614 245C1.86882 245 0 243.131 0 240.824C0 238.517 1.86882 236.648 4.17614 236.648C6.48345 236.648 8.35227 238.517 8.35227 240.824Z" fill="#4DBDCC" fill-opacity="0.1"/>
<path fill-rule="evenodd" clip-rule="evenodd" d="M30.625 240.824C30.625 243.131 28.7562 245 26.4489 245C24.1416 245 22.2727 243.131 22.2727 240.824C22.2727 238.517 24.1416 236.648 26.4489 236.648C28.7562 236.648 30.625 238.517 30.625 240.824Z" fill="#4DBDCC" fill-opacity="0.1"/>
<path fill-rule="evenodd" clip-rule="evenodd" d="M51.5057 240.824C51.5057 243.131 49.6369 245 47.3295 245C45.0222 245 43.1534 243.131 43.1534 240.824C43.1534 238.517 45.0222 236.648 47.3295 236.648C49.6369 236.648 51.5057 238.517 51.5057 240.824Z" fill="#4DBDCC" fill-opacity="0.1"/>
<path fill-rule="evenodd" clip-rule="evenodd" d="M72.3864 240.824C72.3864 243.131 70.5175 245 68.2102 245C65.9029 245 64.0341 243.131 64.0341 240.824C64.0341 238.517 65.9029 236.648 68.2102 236.648C70.5175 236.648 72.3864 238.517 72.3864 240.824Z" fill="#4DBDCC" fill-opacity="0.1"/>
<path fill-rule="evenodd" clip-rule="evenodd" d="M94.6591 240.824C94.6591 243.131 92.7903 245 90.483 245C88.1756 245 86.3068 243.131 86.3068 240.824C86.3068 238.517 88.1756 236.648 90.483 236.648C92.7903 236.648 94.6591 238.517 94.6591 240.824Z" fill="#4DBDCC" fill-opacity="0.1"/>
<path fill-rule="evenodd" clip-rule="evenodd" d="M115.54 240.824C115.54 243.131 113.671 245 111.364 245C109.056 245 107.188 243.131 107.188 240.824C107.188 238.517 109.056 236.648 111.364 236.648C113.671 236.648 115.54 238.517 115.54 240.824Z" fill="#4DBDCC" fill-opacity="0.1"/>
<path fill-rule="evenodd" clip-rule="evenodd" d="M137.812 240.824C137.812 243.131 135.944 245 133.636 245C131.329 245 129.46 243.131 129.46 240.824C129.46 238.517 131.329 236.648 133.636 236.648C135.944 236.648 137.812 238.517 137.812 240.824Z" fill="#4DBDCC" fill-opacity="0.1"/>
<path fill-rule="evenodd" clip-rule="evenodd" d="M158.693 240.824C158.693 243.131 156.824 245 154.517 245C152.21 245 150.341 243.131 150.341 240.824C150.341 238.517 152.21 236.648 154.517 236.648C156.824 236.648 158.693 238.517 158.693 240.824Z" fill="#4DBDCC" fill-opacity="0.1"/>
<path fill-rule="evenodd" clip-rule="evenodd" d="M180.966 240.824C180.966 243.131 179.097 245 176.79 245C174.482 245 172.614 243.131 172.614 240.824C172.614 238.517 174.482 236.648 176.79 236.648C179.097 236.648 180.966 238.517 180.966 240.824Z" fill="#4DBDCC" fill-opacity="0.1"/>
<path fill-rule="evenodd" clip-rule="evenodd" d="M201.847 240.824C201.847 243.131 199.978 245 197.67 245C195.363 245 193.494 243.131 193.494 240.824C193.494 238.517 195.363 236.648 197.67 236.648C199.978 236.648 201.847 238.517 201.847 240.824Z" fill="#4DBDCC" fill-opacity="0.1"/>
<path fill-rule="evenodd" clip-rule="evenodd" d="M222.727 240.824C222.727 243.131 220.858 245 218.551 245C216.244 245 214.375 243.131 214.375 240.824C214.375 238.517 216.244 236.648 218.551 236.648C220.858 236.648 222.727 238.517 222.727 240.824Z" fill="#4DBDCC" fill-opacity="0.1"/>
<path fill-rule="evenodd" clip-rule="evenodd" d="M245 240.824C245 243.131 243.131 245 240.824 245C238.517 245 236.648 243.131 236.648 240.824C236.648 238.517 238.517 236.648 240.824 236.648C243.131 236.648 245 238.517 245 240.824Z" fill="#4DBDCC" fill-opacity="0.1"/>
<path fill-rule="evenodd" clip-rule="evenodd" d="M8.35227 261.705C8.35227 264.012 6.48345 265.881 4.17614 265.881C1.86882 265.881 0 264.012 0 261.705C0 259.397 1.86882 257.528 4.17614 257.528C6.48345 257.528 8.35227 259.397 8.35227 261.705Z" fill="#4DBDCC" fill-opacity="0.1"/>
<path fill-rule="evenodd" clip-rule="evenodd" d="M30.625 261.705C30.625 264.012 28.7562 265.881 26.4489 265.881C24.1416 265.881 22.2727 264.012 22.2727 261.705C22.2727 259.397 24.1416 257.528 26.4489 257.528C28.7562 257.528 30.625 259.397 30.625 261.705Z" fill="#4DBDCC" fill-opacity="0.1"/>
<path fill-rule="evenodd" clip-rule="evenodd" d="M51.5057 261.705C51.5057 264.012 49.6369 265.881 47.3295 265.881C45.0222 265.881 43.1534 264.012 43.1534 261.705C43.1534 259.397 45.0222 257.528 47.3295 257.528C49.6369 257.528 51.5057 259.397 51.5057 261.705Z" fill="#4DBDCC" fill-opacity="0.1"/>
<path fill-rule="evenodd" clip-rule="evenodd" d="M72.3864 261.705C72.3864 264.012 70.5175 265.881 68.2102 265.881C65.9029 265.881 64.0341 264.012 64.0341 261.705C64.0341 259.397 65.9029 257.528 68.2102 257.528C70.5175 257.528 72.3864 259.397 72.3864 261.705Z" fill="#4DBDCC" fill-opacity="0.1"/>
<path fill-rule="evenodd" clip-rule="evenodd" d="M94.6591 261.705C94.6591 264.012 92.7903 265.881 90.483 265.881C88.1756 265.881 86.3068 264.012 86.3068 261.705C86.3068 259.397 88.1756 257.528 90.483 257.528C92.7903 257.528 94.6591 259.397 94.6591 261.705Z" fill="#4DBDCC" fill-opacity="0.1"/>
<path fill-rule="evenodd" clip-rule="evenodd" d="M115.54 261.705C115.54 264.012 113.671 265.881 111.364 265.881C109.056 265.881 107.188 264.012 107.188 261.705C107.188 259.397 109.056 257.528 111.364 257.528C113.671 257.528 115.54 259.397 115.54 261.705Z" fill="#4DBDCC" fill-opacity="0.1"/>
<path fill-rule="evenodd" clip-rule="evenodd" d="M137.812 261.705C137.812 264.012 135.944 265.881 133.636 265.881C131.329 265.881 129.46 264.012 129.46 261.705C129.46 259.397 131.329 257.528 133.636 257.528C135.944 257.528 137.812 259.397 137.812 261.705Z" fill="#4DBDCC" fill-opacity="0.1"/>
<path fill-rule="evenodd" clip-rule="evenodd" d="M158.693 261.705C158.693 264.012 156.824 265.881 154.517 265.881C152.21 265.881 150.341 264.012 150.341 261.705C150.341 259.397 152.21 257.528 154.517 257.528C156.824 257.528 158.693 259.397 158.693 261.705Z" fill="#4DBDCC" fill-opacity="0.1"/>
<path fill-rule="evenodd" clip-rule="evenodd" d="M180.966 261.705C180.966 264.012 179.097 265.881 176.79 265.881C174.482 265.881 172.614 264.012 172.614 261.705C172.614 259.397 174.482 257.528 176.79 257.528C179.097 257.528 180.966 259.397 180.966 261.705Z" fill="#4DBDCC" fill-opacity="0.1"/>
<path fill-rule="evenodd" clip-rule="evenodd" d="M201.847 261.705C201.847 264.012 199.978 265.881 197.67 265.881C195.363 265.881 193.494 264.012 193.494 261.705C193.494 259.397 195.363 257.528 197.67 257.528C199.978 257.528 201.847 259.397 201.847 261.705Z" fill="#4DBDCC" fill-opacity="0.1"/>
<path fill-rule="evenodd" clip-rule="evenodd" d="M222.727 261.705C222.727 264.012 220.858 265.881 218.551 265.881C216.244 265.881 214.375 264.012 214.375 261.705C214.375 259.397 216.244 257.528 218.551 257.528C220.858 257.528 222.727 259.397 222.727 261.705Z" fill="#4DBDCC" fill-opacity="0.1"/>
<path fill-rule="evenodd" clip-rule="evenodd" d="M245 261.705C245 264.012 243.131 265.881 240.824 265.881C238.517 265.881 236.648 264.012 236.648 261.705C236.648 259.397 238.517 257.528 240.824 257.528C243.131 257.528 245 259.397 245 261.705Z" fill="#4DBDCC" fill-opacity="0.1"/>
<path fill-rule="evenodd" clip-rule="evenodd" d="M30.625 4.17614C30.625 6.48345 28.7562 8.35227 26.4489 8.35227C24.1416 8.35227 22.2727 6.48345 22.2727 4.17614C22.2727 1.86882 24.1416 0 26.4489 0C28.7562 0 30.625 1.86882 30.625 4.17614Z" fill="#4DBDCC" fill-opacity="0.1"/>
<path fill-rule="evenodd" clip-rule="evenodd" d="M51.5057 4.17614C51.5057 6.48345 49.6369 8.35227 47.3295 8.35227C45.0222 8.35227 43.1534 6.48345 43.1534 4.17614C43.1534 1.86882 45.0222 0 47.3295 0C49.6369 0 51.5057 1.86882 51.5057 4.17614Z" fill="#4DBDCC" fill-opacity="0.1"/>
<path fill-rule="evenodd" clip-rule="evenodd" d="M72.3864 4.17614C72.3864 6.48345 70.5175 8.35227 68.2102 8.35227C65.9029 8.35227 64.0341 6.48345 64.0341 4.17614C64.0341 1.86882 65.9029 0 68.2102 0C70.5175 0 72.3864 1.86882 72.3864 4.17614Z" fill="#4DBDCC" fill-opacity="0.1"/>
<path fill-rule="evenodd" clip-rule="evenodd" d="M94.6591 4.17614C94.6591 6.48345 92.7903 8.35227 90.483 8.35227C88.1756 8.35227 86.3068 6.48345 86.3068 4.17614C86.3068 1.86882 88.1756 0 90.483 0C92.7903 0 94.6591 1.86882 94.6591 4.17614Z" fill="#4DBDCC" fill-opacity="0.1"/>
<path fill-rule="evenodd" clip-rule="evenodd" d="M115.54 4.17614C115.54 6.48345 113.671 8.35227 111.364 8.35227C109.056 8.35227 107.188 6.48345 107.188 4.17614C107.188 1.86882 109.056 0 111.364 0C113.671 0 115.54 1.86882 115.54 4.17614Z" fill="#4DBDCC" fill-opacity="0.1"/>
<path fill-rule="evenodd" clip-rule="evenodd" d="M137.812 4.17614C137.812 6.48345 135.944 8.35227 133.636 8.35227C131.329 8.35227 129.46 6.48345 129.46 4.17614C129.46 1.86882 131.329 0 133.636 0C135.944 0 137.812 1.86882 137.812 4.17614Z" fill="#4DBDCC" fill-opacity="0.1"/>
<path fill-rule="evenodd" clip-rule="evenodd" d="M158.693 4.17614C158.693 6.48345 156.824 8.35227 154.517 8.35227C152.21 8.35227 150.341 6.48345 150.341 4.17614C150.341 1.86882 152.21 0 154.517 0C156.824 0 158.693 1.86882 158.693 4.17614Z" fill="#4DBDCC" fill-opacity="0.1"/>
<path fill-rule="evenodd" clip-rule="evenodd" d="M180.966 4.17614C180.966 6.48345 179.097 8.35227 176.79 8.35227C174.482 8.35227 172.614 6.48345 172.614 4.17614C172.614 1.86882 174.482 0 176.79 0C179.097 0 180.966 1.86882 180.966 4.17614Z" fill="#4DBDCC" fill-opacity="0.1"/>
<path fill-rule="evenodd" clip-rule="evenodd" d="M201.847 4.17614C201.847 6.48345 199.978 8.35227 197.67 8.35227C195.363 8.35227 193.494 6.48345 193.494 4.17614C193.494 1.86882 195.363 0 197.67 0C199.978 0 201.847 1.86882 201.847 4.17614Z" fill="#4DBDCC" fill-opacity="0.1"/>
<path fill-rule="evenodd" clip-rule="evenodd" d="M222.727 4.17614C222.727 6.48345 220.858 8.35227 218.551 8.35227C216.244 8.35227 214.375 6.48345 214.375 4.17614C214.375 1.86882 216.244 0 218.551 0C220.858 0 222.727 1.86882 222.727 4.17614Z" fill="#4DBDCC" fill-opacity="0.1"/>
<path fill-rule="evenodd" clip-rule="evenodd" d="M245 4.17614C245 6.48345 243.131 8.35227 240.824 8.35227C238.517 8.35227 236.648 6.48345 236.648 4.17614C236.648 1.86882 238.517 0 240.824 0C243.131 0 245 1.86882 245 4.17614Z" fill="#4DBDCC" fill-opacity="0.1"/>
</svg>
